/* XPM */
static char *_ad3d329c6f34a30e974b186827d96cbYnfT4y8ZapSnI3Ey[] = {
/* columns rows colors chars-per-pixel */
"64 64 13 1 ",
"  c None",
". c #050403",
"X c #14121D",
"o c #2D1B1E",
"O c #2C3B39",
"+ c #4F342F",
"@ c #612721",
"# c #61683A",
"$ c #486859",
"% c #464762",
"& c #939446",
"* c #B28B78",
"= c #CBC6C1",
/* pixels */
"                                                                ",
"                         ......                                 ",
"                        .******.                                ",
"                       .********.                               ",
"                       .****==**.                               ",
"                       .****oo**.                               ",
"                       .********.                               ",
"                       .*******oo                               ",
"                        .*****o@                                ",
"                         .***o@@                                ",
"                         .+***ooo                               ",
"                         .*+****.                               ",
"                         .**+ooo                                ",
"                         .*++.                                  ",
"                       ..**+.                                   ",
"                    ...*o***o..                                 ",
"                   .&.***o*o***.                                ",
"                   .&..*********.                               ",
"                   .&O..********.                               ",
"                   .O.O#.*******.                               ",
"                  .&O.O##....****.                              ",
"                  .&O.O######..**.                              ",
"                  .&..O########.*.                              ",
"                  ..*.O#########..                              ",
"                  ..*.OO########&.                              ",
"                   .*..O########&.                              ",
"                   .*..O########&.                              ",
"                   .*..OO#######&.                              ",
"                   .*..OOO#######&.                             ",
"                   .*..OOO######&&.                             ",
"                   .*..OOOO####&&&.                             ",
"                  .*.  .OOO&&&&&O&.                             ",
"                  .*.  .OO&&OOOOO&&.                            ",
"                  .*.  .OOOOOOO&&&..                            ",
"                  .*.  .$OOOOO&....%.                           ",
"                  .*.  .$$OOOO.XXX.%%.                          ",
"                  .*.  .$$$$..XXXX.X%%.                         ",
"                  .*.  .$$..XXXXXX.X%%.                         ",
"                  .*.   ...%XXXXX.XXX%%.                        ",
"                  .*.     .%XXXX.XXXXX%.                        ",
"                  .*.    .%XXXXX.XXXXX%%.                       ",
"                  .*.    .%XXXX. .XXXXX%.                       ",
"                  .*..   .%XXX.   .XXXX%%.                      ",
"                  .. .   .%XXX.    .XXXX%.                      ",
"                  ..     .%XX.      .XXX%.                      ",
"                   .     .%XX.       .XX%%.                     ",
"                   .     .%X.         .XX%.                     ",
"                    .    .%X.         .XX%.                     ",
"                         .%X.          .X%%.                    ",
"                         .X.            .X%.                    ",
"                        .%X.            .X%.                    ",
"                        .%X.           .XX%.                    ",
"                       .%XX.           .X%.                     ",
"                       .%X.           .++%.                     ",
"                       .%X.           .**.                      ",
"                       .%X.           .**.                      ",
"                       .+.            .*.                       ",
"                       .*.            .*.                       ",
"                       .*.            .*.                       ",
"                       .*.            ..                        ",
"                       ...            ..                        ",
"                       .@.            .@.                       ",
"                       .@.            .@@.                      ",
"                       ...            ..@@..                    "
};
