/* XPM */
static char *result[] = {
/* columns rows colors chars-per-pixel */
"64 64 13 1 ",
"  c #050403",
". c #14121D",
"X c #2D1B1E",
"o c #2C3B39",
"O c #4F342F",
"+ c #612721",
"@ c #61683A",
"# c #486859",
"$ c #464762",
"% c #939446",
"& c #B28B78",
"* c #CBC6C1",
"= c None",
/* pixels */
"================================================================",
"=======================      ===================================",
"====================== &&&&&& ==================================",
"===================== &&&&&&&& =================================",
"===================== &&&&**&& =================================",
"===================== &&&&XX&& =================================",
"===================== &&&&&&&& =================================",
"===================== &&&&&&&XX=================================",
"====================== &&&&&X+==================================",
"======================= &&&X++==================================",
"======================= O&&&XXX=================================",
"======================= &O&&&& =================================",
"======================= &&OXXX==================================",
"======================= &OO ====================================",
"=====================  &&O =====================================",
"==================   &X&&&X ====================================",
"================= % &&&X&X&& ===================================",
"================= %  &&&&&&&& ==================================",
"================= %o  &&&&&&&& =================================",
"================= o o  &&&&&&& =================================",
"================ %o o@@    &&& =================================",
"================ %o o@@@@@@  && ================================",
"================ %  o@@@@@@@@ & ================================",
"================  & o@@@@@@@@@  ================================",
"================  & o@@@@@@@@@% ================================",
"================= &  o@@@@@@@@% ================================",
"================= &  oo@@@@@@@@% ===============================",
"================= &  ooo@@@@@@@% ===============================",
"================= & = ooo@@@@@@@% ==============================",
"================= & = ooo@@@@@@%% ==============================",
"================ & == ooooo@@@%%o% =============================",
"================ & == ooooo%%%ooo% =============================",
"================ & == ooo%%ooooo%% =============================",
"================ & == oo%%oooo%%%o =============================",
"================ & == oooooooo%     ============================",
"================ & == ooooooo% .. $$ ===========================",
"================ & == #oooooo ... .$$ ==========================",
"=============== & === #oooo  .... .$$$ =========================",
"=============== & === ##   ..... ...$$$ ========================",
"=============== & ====  = $.... .....$$ ========================",
"=============== & ======= $..... .....$$ =======================",
"=============== & ======= $.... = .....$ =======================",
"=============== &  ====== $... === ....$$ ======================",
"===============  = ====== $... ==== ....$ ======================",
"===============  ======== $.. ====== ...$ ======================",
"================ ======== $.. ======= ..$$ =====================",
"================ ======== $. ========= ..$ =====================",
"================= ======= $. ========= ..$ =====================",
"========================= $. ========== .$$ ====================",
"========================= . ============ .$ ====================",
"======================== $. ============ .$ ====================",
"======================== $. =========== ..$ ====================",
"======================= $.. =========== .$ =====================",
"======================= $. =========== OO$ =====================",
"======================= $. =========== && ======================",
"======================= $. =========== && ======================",
"======================= O ============ & =======================",
"======================= & ============ & =======================",
"======================= & ============ & =======================",
"======================= & ============  ========================",
"=======================   ============  ========================",
"======================= + ============ + =======================",
"======================= + ============ ++ ======================",
"=======================   ============  ++  ===================="
};
