/* XPM */
static char *result[] = {
/* columns rows colors chars-per-pixel */
"64 64 15 1 ",
"  c #010000",
". c #0D0A17",
"X c #2F1418",
"o c #1F3836",
"O c #21283A",
"+ c #70221B",
"@ c #57312B",
"# c #5E6834",
"$ c #316858",
"% c #444563",
"& c #94953E",
"* c #C08C78",
"= c #547290",
"- c #CEC7C2",
"; c None",
/* pixels */
";;;;;;;;;;;;;;;;;;;;;;;;;;;;;;;;;;;;;;;;;;;;;;;;;;;;;;;;;;;;;;;;",
";;;;;;;;;;;;;;;;;;;;;;;;;;;;;;;;;;;;;;;;;;;;;;;;;;;;;;;;;;;;;;;;",
";;;;;;;;;;;;;;;;;;;;;;;;;;;;;;;;;;;;;;;;;;;;;;;;;;;;;;;;;;;;;;;;",
";;;;;;;;;;;;;;;;;;;;;;;;;;;;;;;;;;;;;;;;;;;;;;;;;;;;;;;;;;;;;;;;",
";;;;;;;;;;;;;;;;;;;;;;;;;;;;;;;;;;;;;;;;;;;;;;;;;;;;;;;;;;;;;;;;",
";;;;;;;;;;;;;;;;;;;;;;;;;;;;;;;;;;;;;;;;;;;;;;;;;;;;;;;;;;;;;;;;",
";;;;;;;;;;;;;;;      ;;;;;;;;;;;;;;;;;;;;;;;;;;;;;;;;;;;;;;;;;;;",
";;;;;;;;;;;;;; ****** ;;;;;;;;;;;;;;;;;;;;;;;;;;;;;;;;;;;;;;;;;;",
";;;;;;;;;;;;; ******** ;;;;;;;;;;;;;;;;;;;;;;;;;;;;;;;;;;;;;;;;;",
";;;;;;;;;;;;; **--**** ;;;;;;;;;;;;;;;;;;;;;;;;;;;;;;;;;;;;;;;;;",
";;;;;;;;;;;;; **XX**** ;;;;;;;;;;;;;;;;;;;;;;;;;;;;;;;;;;;;;;;;;",
";;;;;;;;;;;;; ******** ;;;;;;;;;;;;;;;;;;;;;;;;;;;;;;;;;;;;;;;;;",
";;;;;;;;;;;;;XX******* ;;;;;;;;;;;;;;;;;;;;;;;;;;;;;;;;;;;;;;;;;",
";;;;;;;;;;;;;;+X***** ;;;;;;;;;;;;;;;;;;;;;;;;;;;;;;;;;;;;;;;;;;",
";;;;;;;;;;;;;;++X***@ ;;;      ;;;;;;;;;;;;;;;;;;;;;;;;;;;;;;;;;",
";;;;;;;;;;;;;XXX***@* ;; &&&&    ;;;;;;;;;;;;;;;;;;;;;;;;;;;;;;;",
";;;;;;;;;;;;; ****X***   ##o @***  ;;;;;;;;;;;;;;;;;;;;;;;;;;;;;",
";;;;;;;;;;;;;;XXXX@****  #oo @@@***  ;;;;;;;;;;;;;;;;;;;;;;;;;;;",
";;;;;;;;;;;;;;;;; @@***   ooo   @@***  ;;;;;;;;;;;;;;;;;;;;;;;;;",
";;;;;;;;;;;;;;;;;;  @*X* #  o ;;  @**** ;;;;;;;;;;;;;;;;;;;;;;;;",
";;;;;;;;;;;;;;;;;; @ X*** ##   ;;;    ** ;;;;;;;;;;;;;;;;;;;;;;;",
";;;;;;;;;;;;;;;;;; @ **** ###& ;;;;;;; ** ;;;;;;;;;;;;;;;;;;;;;;",
";;;;;;;;;;;;;;;;;; @@ *** ####& ;;;;;;; ** ;;;;;;;;;;;;;;;;;;;;;",
";;;;;;;;;;;;;;;;;; @@ *** #####& ;;;;;;; ** ;;;;;;;;;;;;;;;;;;;;",
";;;;;;;;;;;;;;;;;; @@ *** ######& ;;;;;;; ** ;;;;;;;;;;;;;;;;;;;",
";;;;;;;;;;;;;;;;;; @ ; ** #######& ;;;;;;; ** ;;;;;;;;;;;;;;;;;;",
";;;;;;;;;;;;;;;;;; @ ;;  &#######& ;;;;;;;; ** ;;; ;;;;;;;;;;;;;",
";;;;;;;;;;;;;;;;;; @ ;;; &&#######& ;;;;;;;;  *    ;;;;;;;;;;;;;",
";;;;;;;;;;;;;;;;; @@ ;;; oo&######& ;;;;;;;;;;    ;;;;;;;;;;;;;;",
";;;;;;;;;;;;;;;;; @ ;;;;; oo&######& ;;;;;;;;;;;;;;;;;;;;;;;;;;;",
";;;;;;;;;;;;;    @@ ;;;;;; oo&####&& ;;;;;;;;;;;;;;;;;;;;;;;;;;;",
";;;;;;;;;;   ****@ ;;;;;;;; oo&&&&o   ;;;;;;;;;;;;;;;;;;;;;;;;;;",
";;;;;;;;  ***     ;;;;;;;;; oooo$o =%% ;;;;;;;;;;;;;;;;;;;;;;;;;",
";;;;;;; *    ;;;;;;;;;;;;;; oooo$ ==%%% ;;;;;;;;;;;;;;;;;;;;;;;;",
";;;;;; * ;;;;;;;;;;;;;;;;;;; oo$ =%%%%%O ;;;;;;;;;;;;;;;;;;;;;;;",
";;;;; * ;;;;;;;;;;;;;;;;;;;; o$$ =%%%%OO  ;;;;;;;;;;;;;;;;;;;;;;",
";;;;; * ;;;;;;;;;;;;;;;;;;;; $$ =%%%%OOO  ;;;;;;;;;;;;;;;;;;;;;;",
";;;;; *  ;;;;;;;;;;;;;;;;;;; $ =%%%%%OO  % ;;;;;;;;;;;;;;;;;;;;;",
";;;;;; ;;;;;;;;;;;;;;;;;;;;;;  =%%%%OO  .% ;;;;;;;;;;;;;;;;;;;;;",
";;;;;;;;;;;;;;;;;;;;;;;;;;;;; =%%%%OO  ..% ;;;;;;;;;;;;;;;     ;",
";;;;;;;;;;;;;;;;;;;;;;;;;;;; =%%%%OO  ....% ;;;;;;;;;;;   * ++ ;",
";;;;;;;;;;;;;;;;;;;;;;;;;;;; =%%%OO   ....% ;;;;;;;;;  ***   ++;",
";;;;;;;;;;;;;;;;;;;;;;;;;;; =%%%OO ;; .....% ;;;;;;  ***  ;;  +;",
";;;;;;;;;;;;;;;;;;;;;;;;;;; =%%%O ;;;; ....% ;;;;; %.*  ;;;;;  ;",
";;;;;;;;;;;;;;;;;;;;;;;;;;; =%%O ;;;;;; ....% ;;; %..  ;;;;;;; ;",
";;;;;;;;;;;;;;;;;;;;;;;;;; =%%O ;;;;;;;; ...% ;; %... ;;;;;;;; ;",
";;;;;;;;;;;;;;;;;;;;;;;;;; =%O ;;;;;;;;;; ...% ; %.. ;;;;;;;;;;;",
";;;;;;;;;;;;;;;;;;;;;;;;;; =%O ;;;;;;;;;;; ...% %.. ;;;;;;;;;;;;",
";;;;;;;;;;;;;;;;;;;;;;;;;; =%O ;;;;;;;;;;;; ....... ;;;;;;;;;;;;",
";;;;;;;;;;;;;;;;;;;;;;;;;; =%O ;;;;;;;;;;;;;  .... ;;;;;;;;;;;;;",
";;;;;;;;;;;;;;;;;;;;;;;;;; =%O ;;;;;;;;;;;;;;;  .. ;;;;;;;;;;;;;",
";;;;;;;;;;;;;;;;;;;;;;;;;; =O ;;;;;;;;;;;;;;;;;;  ;;;;;;;;;;;;;;",
";;;;;;;;;;;;;;;;;;;;;;;;;; =O ;;;;;;;;;;;;;;;;;;;;;;;;;;;;;;;;;;",
";;;;;;;;;;;;;;;;;;;;;;;;;; = ;;;;;;;;;;;;;;;;;;;;;;;;;;;;;;;;;;;",
";;;;;;;;;;;;;;;;;;;;;;;;;; O ;;;;;;;;;;;;;;;;;;;;;;;;;;;;;;;;;;;",
";;;;;;;;;;;;;;;;;;;;;;;;; *O ;;;;;;;;;;;;;;;;;;;;;;;;;;;;;;;;;;;",
";;;;;;;;;;;;;;;;;;;;;;;;; * ;;;;;;;;;;;;;;;;;;;;;;;;;;;;;;;;;;;;",
";;;;;;;;;;;;;;;;;;;;;;;;; * ;;;;;;;;;;;;;;;;;;;;;;;;;;;;;;;;;;;;",
";;;;;;;;;;;;;;;;;;;;;;;; ** ;;;;;;;;;;;;;;;;;;;;;;;;;;;;;;;;;;;;",
";;;;;;;;;;;;;;;;;;;;;;;; * ;;;;;;;;;;;;;;;;;;;;;;;;;;;;;;;;;;;;;",
";;;;;;;;;;;;;;;;;;;;;;;;   ;;;;;;;;;;;;;;;;;;;;;;;;;;;;;;;;;;;;;",
";;;;;;;;;;;;;;;;;;;;;;;  + ;;;;;;;;;;;;;;;;;;;;;;;;;;;;;;;;;;;;;",
";;;;;;;;;;;;;;;;;;;;;; +++ ;;;;;;;;;;;;;;;;;;;;;;;;;;;;;;;;;;;;;",
";;;;;;;;;;;;;;;;;;;;  +++  ;;;;;;;;;;;;;;;;;;;;;;;;;;;;;;;;;;;;;"
};
