/* XPM */
static char *result[] = {
/* columns rows colors chars-per-pixel */
"64 64 14 1 ",
"  c #010000",
". c #0D0A17",
"X c #2F1418",
"o c #1F3836",
"O c #21283A",
"+ c #70221B",
"@ c #57312B",
"# c #5E6834",
"$ c #444563",
"% c #94953E",
"& c #C08C78",
"* c #547290",
"= c #CEC7C2",
"- c None",
/* pixels */
"----------------------------------------------------------------",
"----------------------------------------------------------------",
"----------------------------------------------------------------",
"----------------------------------------------------------------",
"---------------------      -------------------------------------",
"-------------------- &&&&&& ------------------------------------",
"------------------- &&&&&&&& -----------------------------------",
"------------------- &&==&&&& -----------------------------------",
"------------------- &&XX&&&& -----------------------------------",
"------------------- &&&&&&&& -----------------------------------",
"-------------------XX&&&&&&& -----------------------------------",
"--------------------+X&&&&& ------------------------------------",
"--------------------++X&&&@ ------------------------------------",
"-------------------XXX&&&@& ------------------------------------",
"------------------- &&&&X&&& -   -------------------------------",
"--------------------XXXX@&&&& #%% ------------------------------",
"----------------------- @@&&& ###% -----------------------------",
"------------------------  @& ####% -----------------------------",
"-------------------------- & #####%  ---------------------------",
"-------------------------- X  #oo % &  -------------------------",
"-------------------------- & & o o#% &   -----------------------",
"---------------------------  && ####% && -----------------------",
"---------------------------  && ####%  && ----------------------",
"---------------------------- && #####%  && ---------------------",
"--------------------------- && ######%% && ---------------------",
"--------------------------- && %######%% && --------------------",
"-------------------------- &&  %######%%% & --------------------",
"-------------------------- &&  %#######%%  & -------------------",
"------------------------- && - o%#######%%  & ------------------",
"------------------------ &&& - oo%######%%% & ------------------",
"------------------------ && -- ooo%#####%%% &  -----------------",
"----------------------- && --- oooo%####%% * & -----------------",
"---------------------- && ---- ooooo%%%%% $* & -----------------",
"--------------------- && ----- oooooo%%%% $$*  -----------------",
"--------------------- & ------ ooooooooo $$$* & ----------------",
"-------------------- && ------ oooooooo $$$$*   ----------------",
"-------------------- & ------- ooooooo O$$$$* ------------------",
"-------------------  & --------  oooo  O$$$$* ------------------",
"------------------- & -----------    . O$$$$* ------------------",
"------------------ && -----------  $.. O$$$$* ------------------",
"------------------ & ------------- $... $$$$* -------      -----",
"------------------ & ------------- $... O$$$* ------ && ++ -----",
"-------------------  ------------- $... O$$$* ----  && - ++-----",
"--------------------------------- $.... O$$$* --  &&& --- +-----",
"--------------------------------- $....  O$$* - **.& ----- -----",
"--------------------------------- $... - O$$*  *$$$ ------ -----",
"--------------------------------- $... -- O$* *$$$ -------------",
"--------------------------------- $... -- O$$*$$$ --------------",
"--------------------------------- $.. ---- O$$$$ ---------------",
"--------------------------------- $.. ---- OO$$ ----------------",
"--------------------------------- $... ----    -----------------",
"--------------------------------- $.... ------------------------",
"---------------------------------- $$... -----------------------",
"-----------------------------------  $.. -----------------------",
"-------------------------------------  && ----------------------",
"-------------------------------------- && ----------------------",
"--------------------------------------- & ----------------------",
"----------------------------------------  ----------------------",
"---------------------------------------- & ---------------------",
"-----------------------------------------  ---------------------",
"-----------------------------------------  ---------------------",
"---------------------------------------- + ---------------------",
"--------------------------------------- ++ ---------------------",
"-------------------------------------  ++  ---------------------"
};
