/* XPM */
static char *_4341038f11e41dbfe654c7b592701daCdjk3LYMykZizbvb[] = {
/* columns rows colors chars-per-pixel */
"64 64 174 2 ",
"   c None",
".  c #000001",
"X  c #0F0007",
"o  c #020508",
"O  c #0E010A",
"+  c #070A0B",
"@  c #080B0E",
"#  c #10000A",
"$  c #0D0513",
"%  c #040B15",
"&  c #0A0B15",
"*  c #050D19",
"=  c #0B0D19",
"-  c #05101D",
";  c #0E111C",
":  c #13171F",
">  c #2F001C",
",  c #3E001D",
"<  c #071323",
"1  c #0E1928",
"2  c #151A21",
"3  c #0F1B37",
"4  c #141F3F",
"5  c #2F0120",
"6  c #2A0729",
"7  c #280A2D",
"8  c #300223",
"9  c #3C0023",
"0  c #34052E",
"q  c #3C012A",
"w  c #2C0F39",
"e  c #2D0B34",
"r  c #330733",
"t  c #380631",
"y  c #340935",
"u  c #3B0A35",
"i  c #330A38",
"p  c #390D3E",
"a  c #2F103D",
"s  c #20183F",
"d  c #30103C",
"f  c #112134",
"g  c #1E2637",
"h  c #1F2A3D",
"j  c #400017",
"k  c #40001A",
"l  c #450027",
"z  c #44002A",
"x  c #440331",
"c  c #171F47",
"v  c #1A1D45",
"b  c #191F54",
"n  c #370D40",
"m  c #390E43",
"M  c #3F0F49",
"N  c #251C4C",
"B  c #2D1E4C",
"V  c #391145",
"C  c #371944",
"Z  c #3D124C",
"A  c #31154A",
"S  c #261E50",
"D  c #3F1451",
"F  c #341C53",
"G  c #142247",
"H  c #16264D",
"J  c #1A254C",
"K  c #1B2355",
"L  c #172951",
"P  c #192A53",
"I  c #1E265A",
"U  c #1D295C",
"Y  c #1C305C",
"T  c #24244E",
"R  c #262153",
"E  c #2B2556",
"W  c #2F2A57",
"Q  c #202759",
"!  c #2C255D",
"~  c #262E5F",
"^  c #2D2B59",
"/  c #3A225D",
"(  c #233057",
")  c #293255",
"_  c #27345F",
"`  c #2B3759",
"'  c #2D395A",
"]  c #35305D",
"[  c #38305D",
"{  c #313D5D",
"}  c #1E2E62",
"|  c #1F3164",
" . c #2D2760",
".. c #262E61",
"X. c #2D2863",
"o. c #232E69",
"O. c #2F2A68",
"+. c #332867",
"@. c #312A69",
"#. c #263162",
"$. c #2A3463",
"%. c #2E3A66",
"&. c #23336D",
"*. c #2B356C",
"=. c #2B3C6C",
"-. c #3C3C66",
";. c #31366F",
":. c #323D69",
">. c #243671",
",. c #293E71",
"<. c #373772",
"1. c #363A74",
"2. c #400F4A",
"3. c #2D416C",
"4. c #3F4D67",
"5. c #34416C",
"6. c #38466F",
"7. c #284070",
"8. c #344473",
"9. c #394672",
"0. c #364C76",
"q. c #3B4971",
"w. c #3A477A",
"e. c #3C4A7B",
"r. c #44546C",
"t. c #47586E",
"y. c #404F75",
"u. c #404F7C",
"i. c #415177",
"p. c #475970",
"a. c #485970",
"s. c #43527B",
"d. c #47587C",
"f. c #4A5B7E",
"g. c #3B4880",
"h. c #404F80",
"j. c #435381",
"k. c #4C5E81",
"l. c #4F6182",
"z. c #526585",
"x. c #546887",
"c. c #556788",
"v. c #566A89",
"b. c #586C8C",
"n. c #5A6F8E",
"m. c #596E8C",
"M. c #5B718E",
"N. c #596E93",
"B. c #5A6F96",
"V. c #5D7390",
"C. c #5E7395",
"Z. c #5F7396",
"A. c #5F7597",
"S. c #5F7492",
"D. c #5D7399",
"F. c #607794",
"G. c #637A96",
"H. c #617799",
"J. c #61779B",
"K. c #62799B",
"L. c #657D9D",
"P. c #657C9A",
"I. c #687F9B",
"U. c #6B839E",
"Y. c #6780A1",
"T. c #6880A2",
"R. c #728CA5",
"E. c #7E9CB2",
"W. c #809DB4",
"Q. c #84A1B8",
"!. c #8CADBF",
"~. c #8DADC1",
"^. c #91B1C5",
"/. c #94B5C8",
/* pixels */
". . . . . . . . . . . . . . . . . . . . . . . . . . . . . . . . . . . . . . . . . . . . . . . . . . . . . . . . . . . . . . . . ",
". o % = $ O O # # O $ = * & & * ; = : = ; = ; ; 2 2 2 2 2 2 2 2 2 2 2 2 2 2 2 2 : = = = ; : ; = & % % = % $ O O O # # $ = % . . ",
". * 4 N e 5 > > 5 7 v J J v v T ) { ` ` ) ^ ) { r.a.a.t.r.r.r.t.t.t.r.r.p.a.a.r.{ ) ) ) ' { ' ^ J v J J J s 6 > > > 8 a N 3 % . ",
". < I +.M x l l z m  .>.>.o.o.,.e.j.h.h.h.w.w.k.D.T.L.K.J.J.A.A.J.F.J.J.L.L.L.N.j.e.w.u.u.j.j.w.*.o.o.>.*.! p z z l x 2.O.P * . ",
". < U @.Z z l l z m ! >.o.o...o.q.u.u.u.e.w.w.j.N.K.K.A.A.A.C.C.C.C.C.A.J.L.L.N.j.w.w.e.e.j.e.9.*.o.o.>.&.! p z l l x Z O.L * . ",
". - P X.V q 9 9 q i Q | } } Q ..5.q.q.q.5.:.5.q.c.V.M.m.b.b.b.b.b.b.b.v.N.S.S.z.q.:.:.6.q.q.q.5...Q } | &.S t q 9 9 q V X.L * . ",
". - L ! p q , 9 9 y R | } I Q ..5.q.6.6.5.:.:.y.z.M.b.x.x.x.v.x.v.c.v.v.v.m.m.z.q.:.:.5.6.q.6.5.~ R I | } T y 9 9 , q V ! H * . ",
". - L ! p q 9 9 q y R } } I Q ..5.6.q.6.5.:.:.q.z.M.b.v.v.v.v.v.v.v.v.v.b.m.m.z.q.:.5.5.6.q.q.:...Q U } | S y q 9 9 q V X.H * . ",
". - L  .p q 9 9 q y R | | U K #.5.q.q.6.5.:.:.q.c.M.M.v.v.v.v.v.v.v.v.v.m.m.M.z.q.:.:.5.6.q.q.5...I I | | T r 9 9 9 q V X.H % . ",
". * L  .i q 9 , q y R | | U I _ :.q.9.6.5.:.:.q.x.M.v.v.v.v.v.v.v.v.v.v.v.m.M.x.q.:.5.5.6.q.q.:...I I | | R y q 9 , q V X.L * . ",
". < L  .n q 9 9 9 y R | } I I ~ 5.q.q.5.9.:.:.q.c.M.v.v.v.v.v.v.v.v.v.v.m.v.m.v.y.:.:.9.6.q.6.5.~ I U } | R r q 9 , q n X.H % . ",
". * L  .n q 9 9 q e R | } I I ..5.q.q.6.5.:.:.q.v.M.v.v.v.v.v.v.v.v.v.v.v.v.m.v.q.:.:.5.6.q.6.5.~ I U | #.R r q 9 9 q V X.H * . ",
". - L ! n q 9 9 q i R | } I I ..5.q.q.6.5.:.:.q.c.M.v.c.v.v.v.v.v.v.v.v.v.b.m.v.q.:.:.9.9.y.9.5.~ Q I } | R y q 9 9 q V X.L % . ",
". < L  .n q 9 9 q y Q | } U I ..5.q.q.6.5.:.:.q.v.M.m.v.v.v.v.v.v.v.v.v.v.v.m.v.9.:.:.:.-.6.q.5...Q U } #.R y q , , q p X.L * . ",
". - L  .i q 9 9 9 y R | } I I ~ :.q.q.9.5.:.%.9.c.M.v.v.x.v.v.v.c.v.v.v.b.m.m.v.6.:.:.6.9.9.q.5...Q Q } | R e 9 9 9 q V X.H % . ",
". * L  .p q 9 , q y R | } I Q ..:.q.9.q.9.:.-.y.v.M.v.m.v.v.v.v.v.v.v.v.v.m.N.x.q.:.:.5.9.9.9.5...I U | | S y q 9 , q V X.H % . ",
". < L  .m q 9 9 q y R | | U I ..:.9.q.6.5.:.:.q.x.M.m.v.v.v.v.v.v.v.x.b.v.M.M.z.y.:.:.5.q.q.q.:...Q I } | R y q , 9 q V X.H * . ",
". * P  .n q 9 9 q y R | | I I ..5.q.q.6.5.:.:.y.z.S.m.v.v.v.v.x.v.v.v.v.M.M.M.z.q.:.:.9.q.q.q.:...Q U #.#.R y 9 9 9 q V X.H % . ",
". - L  .p q , , 9 y R | U K I ..:.6.6.6.:.;.:.q.z.m.v.z.v.z.x.x.x.x.x.x.x.v.m.z.9.:.:.:.5.q.q.:...K U } | T t 9 , , q m ! H * . ",
". - H S u 9 j , , 0 b U Y K K } %.5.5.5.:.%.%.5.f.z.z.z.z.z.z.z.z.z.z.f.z.x.x.f.5.%.:.:.:.:.5.%.Q b K } U N 0 j , j k m E G % . ",
". * L ! p 9 , , 9 y R | } K I ..5.9.6.6.:.%.%.q.l.v.z.z.f.z.z.z.l.z.f.z.z.v.v.f.9.%.:.5.5.q.9.:...K U } | N 0 9 , , q Z  .H % . ",
". 1 #.<.F p w i a B $.7.=..._ 5.i.f.d.d.i.q.q.z.I.R.R.U.U.G.G.G.F.P.P.U.U.R.R.P.k.q.y.s.d.d.k.y.:...$.=.7.#.B a w t d / <.Q ; . ",
". 2 %.e.<.Q R K Q $.8.0.8.5.5.q.z.M.M.v.x.z.z.P.Q././.!.!.!.!.!.!.!.!.!.^././.E.F.z.z.v.m.S.S.z.q.5.5.0.0.3.#.Q Q S Q 1.e.' ; . ",
". & h %.,.&.Q R R E ] -.6.3.3.9.f.x.v.v.z.f.f.F.W.^.^.!.!.!.~.^.^.~.!.!.~.^.^.E.S.f.z.z.v.v.z.d.q.8.8.6.-.] Q R Q Q &.7.%.g % . ",
"    @ f Y X.A r r 0 u C ^ #.| ..%.5.y.i.y.9.6.f.F.U.U.F.F.F.F.S.F.F.F.F.G.U.U.F.d.q.q.i.s.y.:.$.#.| #.W C u r 0 i F ..U 1 +     ",
"    . % G ! p , , , , r N } } b b Q %.5.5.%.%.6.f.x.z.z.f.z.f.z.z.f.l.l.z.z.z.f.5.%.:.:.:.%.Q b K } } N 0 , , , q m ^ G % .     ",
"    . % H W p , , , , r S } } K K Q :.5.5.%.%.6.f.v.z.z.z.z.z.z.z.z.z.z.z.v.v.f.6.%.:.5.5.%.Q b U } } N 0 , , , l m ! G % .     ",
"    . % L ! p 9 , 9 9 y R } } K I ~ :.q.6.:.:.q.z.M.v.x.v.v.v.x.v.v.x.v.v.m.m.z.q.:.:.q.6.:.~ R U } | N r q 9 , q m X.H % .     ",
"    . % L X.p 9 9 9 9 y R | | I Q #.5.q.6.:.5.q.v.M.M.v.v.v.v.v.v.v.v.v.v.M.M.z.q.:.:.q.9.:.~ Q U } | S y q , 9 q m  .H % .     ",
"    . % L X.V 9 9 , q i R | U I Q #.:.q.9.:.:.q.x.M.m.v.v.v.v.v.v.v.v.v.v.M.M.x.q.:.5.q.6.:.~ I U } | R r q 9 9 q V X.L % .     ",
"    . % L X.p 9 9 , q i R } } I I #.5.q.6.:.:.q.x.M.v.m.v.v.v.v.v.v.v.v.v.M.M.x.q.%.5.6.6.:.~ I U | | K y 9 9 9 q m X.P % .     ",
"    . % L X.p 9 9 9 9 y R | } I Q ~ :.q.6.5.:.q.x.v.v.v.v.v.v.v.v.v.v.v.v.v.M.x.y.%.5.q.q.:...Q U } | R y 9 9 9 q m X.L % .     ",
"    . % P X.p 9 9 , q y R | } I I ~ 5.q.6.:.:.y.x.M.v.v.v.v.v.v.v.v.v.v.v.v.m.v.q.:.5.q.6.:.~ Q Q } #.R y 9 9 9 q n  .L % .     ",
"    . % P X.p 9 9 9 9 i R | } I I _ 5.q.6.:.:.q.v.M.v.v.v.v.v.v.v.v.v.v.v.v.m.v.q.:.:.q.6.:.~ Q Q } | R y 9 9 , q m O.L % .     ",
"    . % L X.p 9 9 9 9 y R } } K Q ~ 5.6.6.5.:.q.x.m.v.v.v.v.v.v.v.v.v.v.v.m.m.v.q.:.5.6.q.:.~ Q U } | Q t q 9 9 q m X.L % .     ",
"    . % L X.p 9 9 , q y R | } I I #.5.6.6.:.:.y.x.M.v.v.v.v.v.v.v.v.v.v.v.v.m.v.q.:.5.q.q.:._ Q U } | R r q , 9 q m X.L % .     ",
"    . % L X.n 9 9 , 9 w R ..} I Q #.5.6.6.5.:.q.x.m.v.v.v.v.v.v.v.v.v.v.v.m.m.v.q.:.:.6.9.:.~ Q Q } | R i q 9 , q m X.L % .     ",
"    . % L X.d q 9 9 q i R | } I I ~ 5.6.6.:.:.q.v.m.v.v.x.v.v.v.v.v.v.v.v.v.M.v.q.:.5.q.6.:._ Q U } | R y 9 9 , q m X.L % .     ",
"    . % L X.p 9 9 9 9 y R } } I I _ 5.6.6.5.:.q.x.M.v.v.v.v.v.v.v.v.v.v.v.v.m.v.q.:.:.q.q.:.~ Q U } o.R r 9 9 9 q m X.L % .     ",
"    . % L X.p 9 9 , q i R } } I Q #.5.q.6.5.:.q.x.M.M.v.v.v.v.v.v.v.v.v.v.v.m.v.q.:.5.q.6.:.~ Q Q } | R y q , 9 q m X.L % .     ",
"    . % L X.p 9 9 , q i R } } I I ..5.6.6.:.:.q.v.M.v.v.v.v.v.v.v.v.v.v.b.b.M.v.6.%.5.6.6.:._ Q I | | R r 9 9 , q m X.P % .     ",
"    . % L X.p q 9 9 9 e R #.} I I ~ 5.q.6.5.5.q.v.v.v.v.v.v.v.v.v.v.v.v.b.m.b.v.q.5.5.6.q.:.~ I I | | R r q 9 9 q m X.L % .     ",
"    . % L X.p 9 9 , q i R | } I Q #.5.6.6.-.:.q.x.M.M.v.v.v.v.v.v.v.v.v.v.v.m.v.q.%.5.q.q.-.~ Q U | | R y q , 9 q m X.L % .     ",
"    . % L X.p 9 9 9 9 i R } } I I ..5.6.6.5.5.q.x.M.v.v.v.v.v.v.v.v.v.v.v.v.m.v.q.5.5.6.6.:.~ Q I } | R r 9 9 9 q m X.L % .     ",
"    . % L X.p 9 9 , 9 i R | U I I #.5.q.6.5.:.q.v.m.v.v.v.v.v.v.v.v.v.v.v.v.M.v.q.5.5.q.6.5._ Q I } | R t q , , q m X.L % .     ",
"    . % L X.V 9 9 9 9 w R | | I Q _ 5.6.6.3.:.q.x.m.v.v.v.v.v.v.v.v.v.v.v.v.m.v.q.%.5.6.6.:.~ Q U } | R r q 9 9 q m X.L % .     ",
"    . * L X.p 9 , 9 q i R } } I I ~ 5.6.6.:.:.q.v.m.v.v.v.v.x.v.v.v.v.v.v.m.M.v.q.:.5.6.6.:._ Q U | | R y 9 9 9 q m X.L % .     ",
"    . * L X.p 9 9 9 9 y R #.} I Q #.5.6.6.5.5.q.x.M.v.v.v.v.v.v.v.v.v.v.v.v.M.v.q.5.5.6.6.5.~ Q I | | R r q , 9 q m X.L % .     ",
"    . % L X.p 9 9 9 9 i R | | I I ~ 5.6.6.5.:.q.v.M.v.b.v.v.v.v.x.v.v.v.v.b.M.b.q.%.5.q.q.:.~ Q U } #.R y q , 9 q n X.L % .     ",
"    . % L X.p 9 9 9 9 i R | } I I ..:.q.6.:.:.y.x.m.v.x.v.v.v.v.v.v.v.v.v.b.v.x.q.%.5.6.6.:.~ Q U } | R r 9 , 9 q m X.L % .     ",
"    . % L X.V 9 9 9 9 i R | } K Q _ 5.6.6.:.:.q.x.M.v.v.v.v.v.v.v.v.v.v.v.v.M.x.q.5.5.q.q.-.~ Q U } | R t q 9 , q m X.L % .     ",
"    . % L X.p 9 9 , 9 i R | } U I ..5.q.6.5.:.q.x.M.M.v.v.v.v.v.v.v.v.v.v.m.M.v.q.:.5.6.q.:._ Q U | | R r q 9 9 q m X.L % .     ",
"    . % L X.p 9 9 9 q i R | U U I _ :.q.6.:.:.q.z.m.v.v.v.v.v.v.v.v.v.v.b.b.M.x.q.:.5.q.q.:.~ Q U } | R y q , 9 q m X.L % .     ",
"    . % L X.n 9 9 , 9 y R ..} I Q ..:.q.6.5.:.y.x.M.M.v.v.v.v.v.v.v.v.v.x.b.M.x.q.:.:.q.6.:.~ Q U } | R r q 9 9 q m X.L % .     ",
"    . % L  .p 9 9 , 9 y R | } K I ~ 5.q.6.5.:.q.x.M.v.v.v.v.v.v.v.v.v.v.x.b.M.b.q.%.5.q.q.:.~ Q U } | R r 9 , , q m X.L % .     ",
"    . % L O.p 9 9 9 q y R | } U I _ 5.6.6.:.5.q.v.v.v.v.v.v.v.v.v.v.v.v.b.b.m.b.q.%.5.9.6.:.~ Q I } o.R y q 9 9 q m X.L % .     ",
"    . % L X.p 9 9 9 q y R | U I Q ..:.6.6.5.:.q.x.M.b.M.v.v.x.b.v.v.v.v.v.v.M.x.q.:.5.q.q.:._ Q I | | R r q 9 9 q m X.P % .     ",
"    . % L X.p 9 9 , q i R } | I I ..5.6.6.5.5.q.x.M.v.v.v.v.x.x.v.v.v.v.v.b.M.v.q.:.:.q.6.:.~ Q I | | R r 9 9 , q m X.L % .     ",
"    . * L X.p 9 9 , 9 i R | U U I _ 5.6.6.5.:.q.x.v.v.v.v.v.v.b.x.v.v.v.x.v.M.x.q.:.5.9.q.%.#.Q U | | R r q 9 9 q m X.L % .     ",
"    . % L O.C 9 9 9 9 w R | } I Q #.5.9.6.:.:.q.x.M.v.v.v.v.v.v.v.v.v.v.b.b.M.v.q.:.:.q.q.-.#.Q I } | R r 9 , 9 q m X.L % .     ",
"    . % L X.p 9 9 9 9 i R } U I I _ :.q.6.3.:.q.x.m.v.v.v.v.x.v.x.v.v.v.v.v.M.v.q.%.:.q.6.:._ I I } | R y q , 9 q m X.L % .     ",
"    . % L X.p 9 9 9 9 y R | | I Q ..:.q.6.-.:.y.x.M.m.v.v.v.v.v.b.v.v.v.b.b.M.v.y.%.5.q.q.:.~ I U | | R r 9 9 , q m X.L % .     ",
"    . % L X.p 9 9 9 9 y R | } I Q ~ 5.q.6.:.:.y.x.m.m.v.b.x.v.v.x.v.v.v.v.b.M.x.q.:.5.6.6.:.~ I I | | R t q 9 , q m X.L % .     ",
"    . % L X.p 9 9 9 q i R | U I I _ 5.6.6.:.%.y.x.M.m.v.x.b.x.v.v.v.v.v.v.b.M.x.q.:.5.q.6.:._ I I | | R r q 9 9 q m X.L % .     "
};
