/* XPM */
static char *_71cab135a4e4cdab7534d71f9ffba8dEzG3HiWsnWYcApVK[] = {
/* columns rows colors chars-per-pixel */
"64 64 2 1 ",
"  c #38002C",
". c #222A5C",
/* pixels */
"                                                                ",
"                                                                ",
"  ............................................................  ",
"  ............................................................  ",
"  ..    ................................................    ..  ",
"  ..    ................................................    ..  ",
"  ..    ................................................    ..  ",
"  ..    ................................................    ..  ",
"  ............................................................  ",
"  ............................................................  ",
"  ............................................................  ",
"  ............................................................  ",
"  ............................................................  ",
"  ............................................................  ",
"  ............................................................  ",
"  ............................................................  ",
"  ............................................................  ",
"  ............................................................  ",
"  ............................................................  ",
"  ............................................................  ",
"  ............................................................  ",
"  ............................................................  ",
"  ............................................................  ",
"  ............................................................  ",
"  ............................................................  ",
"  ............................................................  ",
"  ............................................................  ",
"  ............................................................  ",
"  ............................................................  ",
"  ............................................................  ",
"  ............................................................  ",
"  ............................................................  ",
"  ............................................................  ",
"  ............................................................  ",
"  ............................................................  ",
"  ............................................................  ",
"  ............................................................  ",
"  ............................................................  ",
"  ............................................................  ",
"  ............................................................  ",
"  ............................................................  ",
"  ............................................................  ",
"  ............................................................  ",
"  ............................................................  ",
"  ............................................................  ",
"  ............................................................  ",
"  ............................................................  ",
"  ............................................................  ",
"  ............................................................  ",
"  ............................................................  ",
"  ............................................................  ",
"  ............................................................  ",
"  ............................................................  ",
"  ............................................................  ",
"  ............................................................  ",
"  ............................................................  ",
"  ..    ................................................    ..  ",
"  ..    ................................................    ..  ",
"  ..    ................................................    ..  ",
"  ..    ................................................    ..  ",
"  ............................................................  ",
"  ............................................................  ",
"                                                                ",
"                                                                "
};
