/* XPM */
static char *f212e6de574d4271b4c4f1f1def0021dKICiarhtKuz5r5el[] = {
/* columns rows colors chars-per-pixel */
"64 64 6 1 ",
"  c #566A89",
". c #38002C",
"X c #8BABBF",
"o c #222A5C",
"O c black",
"+ c #37446E",
/* pixels */
"OOOOOOOOOOOOOOOOOOOOOOOOOOOOOOOOOOOOOOOOOOOOOOOOOOOOOOOOOOOOOOOO",
"OOOOOOOOOOOOOOOOOOOOOOOOOOOOOOOOOOOOOOOOOOOOOOOOOOOOOOOOOOOOOOOO",
"OO  XXXXXXXXXXXXXXXXXXXXXXXXXXXXXXXXXXXXXXXXXXXXXXXXXXXXXXXX  OO",
"OO  XXXXXXXXXXXXXXXXXXXXXXXXXXXXXXXXXXXXXXXXXXXXXXXXXXXXXXXX  OO",
"OOoo  XXXXXXXXXXXXXXXXXXXXXXXXXXXXXXXXXXXXXXXXXXXXXXXXXXXX  ooOO",
"OOoo  XXXXXXXXXXXXXXXXXXXXXXXXXXXXXXXXXXXXXXXXXXXXXXXXXXXX  ooOO",
"OOoooo                                                    ooooOO",
"OOoooo                                                    ooooOO",
"OOoooooo++++++++++++++++++++++++++++++++++++++++++++++++ooooooOO",
"OOoooooo++++++++++++++++++++++++++++++++++++++++++++++++ooooooOO",
"OOoooooo++++++++++++++++++++++++++++++++++++++++++++++++ooooooOO",
"OOoooooo++++++++++++++++++++++++++++++++++++++++++++++++ooooooOO",
"OOoooooo++++++    ++++++++++++++++++++++++++++    ++++++ooooooOO",
"OOoooooo++++++    ++++++++++++++++++++++++++++    ++++++ooooooOO",
"OOoooooo++++++    ++++++++++++++++++++++++++++    ++++++ooooooOO",
"OOoooooo++++++    ++++++++++++++++++++++++++++    ++++++ooooooOO",
"OOoooooo++++++oooo++++++++++++++++++++++++++++oooo++++++ooooooOO",
"OOoooooo++++++oooo++++++++++++++++++++++++++++oooo++++++ooooooOO",
"OOoooooo++++++++++++++++++++++++++++++++++++++++++++++++ooooooOO",
"OOoooooo++++++++++++++++++++++++++++++++++++++++++++++++ooooooOO",
"OOoooooo++++++++++++++++++++++++++++++++++++++++++++++++ooooooOO",
"OOoooooo++++++++++++++++++++++++++++++++++++++++++++++++ooooooOO",
"OOoooooo++++++++++++++++++++++++++++++++++++++++++++++++ooooooOO",
"OOoooooo++++++++++++++++++++++++++++++++++++++++++++++++ooooooOO",
"OOoooooo++++++++++++++++++++++++++++++++++++++++++++++++ooooooOO",
"OOoooooo++++++++++++++++++++++++++++++++++++++++++++++++ooooooOO",
"OOoooooo++++++++++++++++++++++++++++++++++++++++++++++++ooooooOO",
"OOoooooo++++++++++++++++++++++++++++++++++++++++++++++++ooooooOO",
"OOoooooo++++++++++++++++++++++++++++++++++++++++++++++++ooooooOO",
"OOoooooo++++++++++++++++++++++++++++++++++++++++++++++++ooooooOO",
"OOoooooo++++++++++++++++++++++++++++++++++++++++++++++++ooooooOO",
"OOoooooo++++++++++++++++++++++++++++++++++++++++++++++++ooooooOO",
"OOoooooo++++++++++++++++++++++++++++++++++++++++++++++++ooooooOO",
"OOoooooo++++++++++++++++++++++++++++++++++++++++++++++++ooooooOO",
"OOoooooo++++++++++++++++++++++++++++++++++++++++++++++++ooooooOO",
"OOoooooo++++++++++++++++++++++++++++++++++++++++++++++++ooooooOO",
"OOoooooo++++++++++++++++++++++++++++++++++++++++++++++++ooooooOO",
"OOoooooo++++++++++++++++++++++++++++++++++++++++++++++++ooooooOO",
"OOoooooo++++++++++++++++++++++++++++++++++++++++++++++++ooooooOO",
"OOoooooo++++++++++++++++++++++++++++++++++++++++++++++++ooooooOO",
"OOoooooo++++++++++++++++++++++++++++++++++++++++++++++++ooooooOO",
"OOoooooo++++++++++++++++++++++++++++++++++++++++++++++++ooooooOO",
"OOoooooo++++++++++++++++++++++++++++++++++++++++++++++++ooooooOO",
"OOoooooo++++++++++++++++++++++++++++++++++++++++++++++++ooooooOO",
"OOoooooo++++++++++++++++++++++++++++++++++++++++++++++++ooooooOO",
"OOoooooo++++++++++++++++++++++++++++++++++++++++++++++++ooooooOO",
"OOoooooo++++++    ++++++++++++++++++++++++++++    ++++++ooooooOO",
"OOoooooo++++++    ++++++++++++++++++++++++++++    ++++++ooooooOO",
"OOoooooo++++++    ++++++++++++++++++++++++++++    ++++++ooooooOO",
"OOoooooo++++++    ++++++++++++++++++++++++++++    ++++++ooooooOO",
"OOoooooo++++++oooo++++++++++++++++++++++++++++oooo++++++ooooooOO",
"OOoooooo++++++oooo++++++++++++++++++++++++++++oooo++++++ooooooOO",
"OOoooooo++++++++++++++++++++++++++++++++++++++++++++++++ooooooOO",
"OOoooooo++++++++++++++++++++++++++++++++++++++++++++++++ooooooOO",
"OOoooooo++++++++++++++++++++++++++++++++++++++++++++++++ooooooOO",
"OOoooooo++++++++++++++++++++++++++++++++++++++++++++++++ooooooOO",
"OOooooooooooooooooooooooooooooooooooooooooooooooooooooooooooooOO",
"OOooooooooooooooooooooooooooooooooooooooooooooooooooooooooooooOO",
"OOoooo....................................................ooooOO",
"OOoooo....................................................ooooOO",
"OOoo........................................................ooOO",
"OOoo........................................................ooOO",
"OOOOOOOOOOOOOOOOOOOOOOOOOOOOOOOOOOOOOOOOOOOOOOOOOOOOOOOOOOOOOOOO",
"OOOOOOOOOOOOOOOOOOOOOOOOOOOOOOOOOOOOOOOOOOOOOOOOOOOOOOOOOOOOOOOO"
};
