/* XPM */
static char *cd8bdddab8764b4888c015d623ec6ff5jv8Xb1ZBh1RtEzHW[] = {
/* columns rows colors chars-per-pixel */
"64 64 64 1 ",
"  c None",
". c #190201",
"X c #1D0201",
"o c #1E0201",
"O c #200201",
"+ c #240301",
"@ c #250302",
"# c #290402",
"$ c #2A0403",
"% c #2B0403",
"& c #2C0503",
"* c #340604",
"= c #390705",
"- c #471007",
"; c #4D1107",
": c #4E1107",
"> c #58170D",
", c #59170D",
"< c #5E1B11",
"1 c #601C11",
"2 c #641F15",
"3 c #661F15",
"4 c #652015",
"5 c #662016",
"6 c #6A2318",
"7 c #6C251A",
"8 c #752C20",
"9 c #772C21",
"0 c #7B2F24",
"q c #7D3327",
"w c #83352A",
"e c #873B2F",
"r c #88392E",
"t c #8E3F34",
"y c #944639",
"u c #9B483D",
"i c #9A4B3E",
"p c #9A4D41",
"a c #9E4F42",
"s c #9D5145",
"d c #AB5B4D",
"f c #AE5E50",
"g c #B36557",
"h c #B26F5E",
"j c #B9685A",
"k c #C46F63",
"l c #CF7D6E",
"z c #D9776A",
"x c #DB8D7E",
"c c #DC8E7E",
"v c #E29F8E",
"b c #E9A997",
"n c #EEAB9A",
"m c #F0A292",
"M c #FFAE9B",
"N c #FFC1AF",
"B c #FFC2B3",
"V c #FFCFBA",
"C c #FFD3C8",
"Z c #FFDDD0",
"A c #FFE9DF",
"S c #FFEDDE",
"D c #FFFAEE",
"F c white",
/* pixels */
"                                                                ",
"                                                                ",
"                                                                ",
"                                                                ",
"                                                                ",
"                                                                ",
"                                                                ",
"                                                                ",
"                                                                ",
"                                                                ",
"                                                                ",
"                                                                ",
"                                                                ",
"                                                                ",
"                                                                ",
"                                                                ",
"                                                                ",
"                                                                ",
"                            &%%****==                           ",
"                         &$%xl000ZzMV==                         ",
"                       $%xlu,3ZFZVVzMVS=                        ",
"                      $plw,6lZNNkMVzzzVD=                       ",
"                     $9i,,ijmNNkZVzMVSzMF=                      ",
"                    $yw,lulummkZNMzzzMVVVS=                     ",
"                   @yi,luCmNukuNmzSSFzMzzVz=                    ",
"                  $9e,ilxujmNuNmkNMzVSzVDMz=                    ",
"                  $y>dujjluuuZmkkmzVzFzMVzVS=                   ",
"                 $yy,wlnuulZuuujNkMVzDzzzDzV=                   ",
"                 $9>pdjujNZkmlZujNkzVSzMVSzVS*                  ",
"                 +y>eiijNuuuNuNZujNVSzMzzVSzN*                  ",
"                 @q,99ilulxujujkZuikzMVVSzVkN*                  ",
"                 X4;epwjnuuNuuulNZAZNkNZkmNZkN*                 ",
"                 @4-9y9iuBZmNj9jukkNkmNkmNZkkk*                 ",
"                  +<;ep9icluxte9jNNmummuNNkZZN*                 ",
"                  +2;7y9hysrfe>3wjuuNkjjmkZNum*                 ",
"                   .4;797e9ye,xljulZkAuukNlujd*                 ",
"                    .4;71177>eyjiwNmvluZijj,,i*                 ",
"                     ...X---y,eewbjuuuZNj,,di$                  ",
"                         .<79g2yhiuljnNj,diwi$                  ",
"                          +44ey>,9eiwii,swde@                   ",
"                           @$;>eg>>>>>>y9ye$                    ",
"                             +4,eg9y>887e@$                     ",
"                              .4>ee69>@@@                       ",
"                               .3,,79@                          ",
"                                X.4,9$                          ",
"                                  X@@                           ",
"                                                                ",
"                                                                ",
"                                                                ",
"                                                                ",
"                                                                ",
"                                                                ",
"                                                                ",
"                                                                ",
"                                                                ",
"                                                                ",
"                                                                ",
"                                                                ",
"                                                                ",
"                                                                ",
"                                                                ",
"                                                                ",
"                                                                ",
"                                                                "
};
