/* XPM */
static char *result[] = {
/* columns rows colors chars-per-pixel */
"64 64 14 1 ",
"  c #050403",
". c #1A0C0E",
"X c #14121D",
"o c #2D1B1E",
"O c #2C3B39",
"+ c #4F342F",
"@ c #612721",
"# c #61683A",
"$ c #486859",
"% c #464762",
"& c #939446",
"* c #B28B78",
"= c #CBC6C1",
"- c None",
/* pixels */
"----------------------------------------------------------------",
"---------------------------      -------------------------------",
"-------------------------- ****** ------------------------------",
"------------------------- ******** -----------------------------",
"------------------------- **==**** -----------------------------",
"------------------------- **oo**** -----------------------------",
"------------------------- ******** -----------------------------",
"-------------------------oo******* -----------------------------",
"--------------------------@o***** ------------------------------",
"--------------------------@@o*** -------------------------------",
"-------------------------ooo***+ -------------------------------",
"------------------------- ****+* -------------------------------",
"--------------------------oooo** -------------------------------",
"---------------------------- ++* -------------------------------",
"----------------------------- +**..-----------------------------",
"---------------------------..o***o*.  --------------------------",
"--------------------------.***o*o*** & -------------------------",
"-------------------------.*********  & -------------------------",
"-------------------------.********  O& -------------------------",
"-------------------------.******* #O O -------------------------",
"------------------------.****    ##O O& ------------------------",
"------------------------.**  ######O O& ------------------------",
"------------------------.* ########O  & ------------------------",
"------------------------. #########O *  ------------------------",
"------------------------ &########OO *  ------------------------",
"------------------------ &########O  * -------------------------",
"------------------------ &########O  * -------------------------",
"------------------------ &#######OO  * -------------------------",
"------------------------ &#######OO  * -------------------------",
"------------------------ &&######O - * -------------------------",
"------------------------ &&&####OO - * -------------------------",
"------------------------ &O&&&&#OO - * -------------------------",
"----------------------- &&OOOOO&&O - * -------------------------",
"----------------------- OO&&OOOOOO - * -------------------------",
"----------------------      &&OOOO - * -------------------------",
"--------------------- %% XXX  OOOO - * -------------------------",
"-------------------- %%X XXXXX OO$ - * -------------------------",
"-------------------- %%X XXXXXX $$ - * -------------------------",
"------------------- %%XXX XXXXX% $ - * -------------------------",
"------------------- %XXXXX XXXX%  -- * -------------------------",
"------------------ %%XXXXX XXXXX% -- * -------------------------",
"------------------ %XXXXX - XXXX% -- * -------------------------",
"----------------- %%XXXX --- XXX% -  * -------------------------",
"----------------- %XXXX ---- XXX% - -  -------------------------",
"----------------- %XXX ------ XX% ---  -------------------------",
"---------------- %%XX ------- XX% --- --------------------------",
"---------------- %XX --------- X% --- --------------------------",
"---------------- %XX --------- X% --.---------------------------",
"--------------- %%X ---------- X% ------------------------------",
"--------------- %X ------------ X ------------------------------",
"--------------- %X ------------ X% -----------------------------",
"--------------- %XX ----------- X% -----------------------------",
"---------------- %X ----------- XX% ----------------------------",
"---------------- %++ ----------- X% ----------------------------",
"----------------- ** ----------- X% ----------------------------",
"----------------- ** ----------- X% ----------------------------",
"------------------ * ------------ + ----------------------------",
"------------------ * ------------ * ----------------------------",
"------------------ * ------------ * ----------------------------",
"-------------------  ------------ * ----------------------------",
"-------------------  ------------   ----------------------------",
"------------------ @ ------------ @ ----------------------------",
"----------------- @@ ------------ @ ----------------------------",
"---------------  @@  ------------   ----------------------------"
};
