/* XPM */
static char *_9658edcee79407fc8413ad0a51e532avEHZSkWXv242oZgN[] = {
/* columns rows colors chars-per-pixel */
"64 64 13 1 ",
"  c None",
". c #050403",
"X c #14121D",
"o c #2D1B1E",
"O c #2C3B39",
"+ c #4F342F",
"@ c #612721",
"# c #61683A",
"$ c #486859",
"% c #464762",
"& c #939446",
"* c #B28B78",
"= c #CBC6C1",
/* pixels */
"                                                                ",
"                                ......                          ",
"                               .******.                         ",
"                              .********.                        ",
"                              .**==****.                        ",
"                              .**oo****.                        ",
"                              .********.                        ",
"                              oo*******.                        ",
"                               @o*****.                         ",
"                               @@o***.                          ",
"                              ooo***+.                          ",
"                              .****+*.                          ",
"                               ooo+**.                          ",
"                                 .++*.                          ",
"                                  .+**..                        ",
"                                ..o***o*...                     ",
"                               .***o*o***.&.                    ",
"                              .*********..&.                    ",
"                              .********..O&.                    ",
"                              .*******.#O.O.                    ",
"                             .****....##O.O&.                   ",
"                             .**..######O.O&.                   ",
"                             .*.########O..&.                   ",
"                             ..#########O.*..                   ",
"                             .&########OO.*..                   ",
"                             .&########O..*.                    ",
"                             .&#######OO..*.                    ",
"                             .&#######OO..*.                    ",
"                            .&#######OOO..*.                    ",
"                            .&&######OOO..*.                    ",
"                            .&&&####OOOO. .*.                   ",
"                            .&O&&&&&OOO.  .*.                   ",
"                           .&&OOOOO&&OO.  .*.                   ",
"                           ..&&&OOOOOOO.  .*.                   ",
"                          .%....&OOOOO$.  .*.                   ",
"                         .%%.XXX.OOOO$$.  .*.                   ",
"                        .%%X.XXXX..$$$$.  .*.                   ",
"                        .%%X.XXXXXX..$$.  .*.                   ",
"                       .%%XXX.XXXXX%...   .*.                   ",
"                       .%XXXXX.XXXX%.     .*.                   ",
"                      .%%XXXXX.XXXXX%.    .*.                   ",
"                      .%XXXXX. .XXXX%.    .*.                   ",
"                     .%%XXXX.   .XXX%.   ..*.                   ",
"                     .%XXXX.    .XXX%.   . ..                   ",
"                     .%XXX.      .XX%.     ..                   ",
"                    .%%XX.       .XX%.     .                    ",
"                    .%XX.         .X%.     .                    ",
"                    .%XX.         .X%.    .                     ",
"                   .%%X.          .X%.                          ",
"                   .%X.            .X.                          ",
"                   .%X.            .X%.                         ",
"                   .%XX.           .X%.                         ",
"                    .%X.           .XX%.                        ",
"                    .%++.           .X%.                        ",
"                     .**.           .X%.                        ",
"                     .**.           .X%.                        ",
"                      .*.            .+.                        ",
"                      .*.            .*.                        ",
"                      .*.            .*.                        ",
"                       ..            .*.                        ",
"                       ..            ...                        ",
"                      .@.            .@.                        ",
"                     .@@.            .@.                        ",
"                   ..@@..            ...                        "
};
