/* XPM */
static char *result[] = {
/* columns rows colors chars-per-pixel */
"64 64 23 1 ",
"  c black",
". c #010000",
"X c #010102",
"o c #060404",
"O c #110D0F",
"+ c #0D0A17",
"@ c #0F1112",
"# c #0F1612",
"$ c #251914",
"% c #2F1418",
"& c #201C31",
"* c #312723",
"= c #2D363F",
"- c #421020",
"; c #503B29",
": c #672D35",
"> c #52632E",
", c #5E6834",
"< c #FF6A00",
"1 c orange",
"2 c #6A768F",
"3 c white",
"4 c None",
/* pixels */
"4444444444444444444444444444444444444444444444444444444444444444",
"4444444444444444444444444444444444444444444444444444444444444444",
"44444444444444444444444.......4444444444444444444444444444444444",
"4444444444444444444444.*>>>>>*.444444444444444444444444444444444",
"4444444444444444444444.>******.444444444444444444444444444444444",
"444444444444444444444.>********.44444444444444444444444444444444",
"444444444444444444444.>********.44444444444444444444444444444444",
"444444444444444444444.>***$...**.4444444444444444444444444444444",
"444444444444444444444.***$ 11<..44444444444444444444444444444444",
"44444444444444444444 .$*$.<<< .444444444444444444444444444444444",
"4444444444444444444 ;.$$.    +.444444444444444444444444444444444",
"4444444444444444444 *;...+++++.           4444444444444444444444",
"444444444444444444 ;**; .++++. =========== 444444444444444444444",
"444444444444444444 ;***;;..++4 =          = 44444444444444444444",
"44444444444444444 **; **& *..  = 444444444 = 4444444444444444444",
"44444444444444444 **;      **  = 444444444 = 4444444444444444444",
"4444444444444444 @***;  &&&                    44444444444444444",
"4444444444444444 @***;  &&&&&&&&&&X&&&&&&&&&&& 44444444444444444",
"4444444444444444 @@**;  &&&22&&          &  &&       33344444444",
"4444444444444444. @**;  &OOOOOOOOOOOOOOOO :: O       33344444444",
"4444444444444444  @***; OO               ::-  444444444444444444",
"4444444444444444  @@**; O & &=   :::::  ---- 4444444444444444444",
"4444444444444444& @@**; O     ;;;----  4    44444444444444444444",
"4444444444444444 & @**;   ;;;;*** -- 444444444444444444444444444",
"4444444444444444   @** ;;;****@@     444444444444444444444444444",
"444444444444444 ##  @* *****@@  #   4444444444444444444444444444",
"444444444444444 ### @*****@@  = # 444444444444444444444444444444",
"444444444444444  # # @*@@@        444444444444444444444444444444",
"444444444444444 ,  # @@   ## ## , 444444444444444444444444444444",
"444444444444444 ,,     #####    , 444444444444444444444444444444",
"4444444444444444 , ,,,       ,, , 444444444444444444444444444444",
"44444444444444444  ,,, ,,,,, ,,  4444444444444444444444444444444",
"44444444444444444 -    ,,,,,   444444444444444444444444444444444",
"4444444444444444 ; ----     -- 444444444444444444444444444444444",
"444444444444444 ;**   ------- ; 44444444444444444444444444444444",
"444444444444444 ;*****       **; 4444444444444444444444444444444",
"44444444444444 ;********@.,.@**; 4444444444444444444444444444444",
"44444444444444 ;********@.,.@***; 444444444444444444444444444444",
"4444444444444 @*********@.,.@***; 444444444444444444444444444444",
"44444444444444 @*******@@@.,.@**; 444444444444444444444444444444",
"4444444444444 ; @@*****@@@.,.@***  44444444444444444444444444444",
"4444444444444 ;*  @@@@@@@@.,.@*@ ; 44444444444444444444444444444",
"4444444444444 ;***  .@@@@@.,.@@ *;X44444444444444444444444444444",
"444444444444 ;****@@@...@@.,.. **;X44444444444444444444444444444",
"444444444444X;***@@@ 444....@@@@**; 4444444444444444444444444444",
"444444444444X;***@@ 44444444X@@@@*;X4444444444444444444444444444",
"444444444444X;**@@ 4444444444X@@@*;X4444444444444444444444444444",
"44444444444X;X*@@X44444444444X@@@@*;X444444444444444444444444444",
"4444444444 ;**@XX4444444444444XXX**;X444444444444444444444444444",
"4444444444X;**@@X444444444444X@@@**;X444444444444444444444444444",
"444444444 ;**@@X4444444444444X@@***X4444444444444444444444444444",
"444444444  *@@@X4444444444444X@***X44444444444444444444444444444",
"444444444 %  @ 4444444444444X%XX*X444444444444444444444444444444",
"44444444 %%%% 44444444444444X%%oX4444444444444444444444444444444",
"44444444 %%% 44444444444444X%%oX44444444444444444444444444444444",
"44444444 %%o 44444444444444X%%X444444444444444444444444444444444",
"44444444 %% 444444444444444X%oX444444444444444444444444444444444",
"44444444 %o 44444444444444X%%X4444444444444444444444444444444444",
"4444444 %% 444444444444444X%%X4444444444444444444444444444444444",
"4444444 %o 444444444444444X%%X4444444444444444444444444444444444",
"444444 %%o 444444444444444X%%%X444444444444444444444444444444444",
"444444 %% 444444444444444Xo%%%%XX4444444444444444444444444444444",
"44444 %%o 444444444444444Xoo%%%%%XX44444444444444444444444444444",
"44444 %%o 444444444444444Xooooo%%%%X4444444444444444444444444444"
};
