/* XPM */
static char *result[] = {
/* columns rows colors chars-per-pixel */
"64 64 23 1 ",
"  c black",
". c #010000",
"X c #010102",
"o c #060404",
"O c #110D0F",
"+ c #0D0A17",
"@ c #0F1112",
"# c #0F1612",
"$ c #251914",
"% c #2F1418",
"& c #201C31",
"* c #312723",
"= c #2D363F",
"- c #421020",
"; c #503B29",
": c #672D35",
"> c #52632E",
", c #5E6834",
"< c #FF6A00",
"1 c orange",
"2 c #6A768F",
"3 c white",
"4 c None",
/* pixels */
"4444444444444444444444444444444444444444444444444444444444444444",
"4444444444444444444444444444444444444444444444444444444444444444",
"4444444444444444444444.......44444444444444444444444444444444444",
"444444444444444444444.*>>>>>*.4444444444444444444444444444444444",
"444444444444444444444.>******.4444444444444444444444444444444444",
"44444444444444444444.>********.444444444444444444444444444444444",
"44444444444444444444.>********.444444444444444444444444444444444",
"44444444444444444444.>***$...**.44444444444444444444444444444444",
"44444444444444444444.***$ 11<..444444444444444444444444444444444",
"4444444444444444444 .$*$.<<< .4444444444444444444444444444444444",
"444444444444444444 ;.$$.    +.444444444444444444444444444<4<4444",
"444444444444444444 *;...+++++.         444444444444444444<<<4444",
"44444444444444444 ;**; .++++. ========= 4444444444444444<<<44444",
"4444444444444444 ; ***;;..++4 =        = 4444444444444<<1<<44444",
"444444444444444 **;  **& *..  = 4444444 = 44444444444<<11<444444",
"444444444444444 **; *     **  = 44444444 =  444444444<11<4444444",
"44444444444444 @***; * &&&                &  4444444<<1<<<<<<<<4",
"44444444444444 @***; * &&&&&&&&&&&&&&X&&  &&       41331111111<<",
"44444444444444 @@**; * &&&22&&        O :: O       4133333333311",
"444444444444444 @**; * OOOOOOOOOOOOOOO -::   4444444<11111<<<<<<",
"444444444444444 @***;  OO             ---: 4444444444<11<4<44444",
"444444444444444 @@**;  O & &   --:::      44444444444<<114444444",
"444444444444444 @@**; &O    ;;; --: 444444444444444444<111444444",
"444444444444444  @**;   ;;;;*** --  4444444444444444444<1<444444",
"444444444444444  @** ;;;****@@      44444444444444444444<<444444",
"44444444444444 ## @* *****@@   # 444444444444444444444444<444444",
"44444444444444 ## @*****@@     # 4444444444444444444444444444444",
"44444444444444  #  @*@@@   ###   4444444444444444444444444444444",
"44444444444444 ,   @@   ### ## , 4444444444444444444444444444444",
"44444444444444 ,,     #####    , 4444444444444444444444444444444",
"444444444444444 , ,,,       ,, , 4444444444444444444444444444444",
"4444444444444444  ,,, ,,,,, ,,  44444444444444444444444444444444",
"4444444444444444 -    ,,,,,   4444444444444444444444444444444444",
"444444444444444 ; ----     -- 4444444444444444444444444444444444",
"44444444444444 ;**   ------- ; 444444444444444444444444444444444",
"44444444444444 ;*****       **; 44444444444444444444444444444444",
"4444444444444 ;********@.,.@**; 44444444444444444444444444444444",
"4444444444444 ;********@.,.@***; 4444444444444444444444444444444",
"444444444444 @*********@.,.@***; 4444444444444444444444444444444",
"4444444444444 @*******@@@.,.@**; 4444444444444444444444444444444",
"444444444444 ; @@*****@@@.,.@***  444444444444444444444444444444",
"444444444444 ;*  @@@@@@@@.,.@*@ ; 444444444444444444444444444444",
"444444444444 ;***  .@@@@@.,.@@ *;X444444444444444444444444444444",
"44444444444 ;****@@@...@@.,.. **;X444444444444444444444444444444",
"44444444444X;***@@@ 444....@@@@**; 44444444444444444444444444444",
"44444444444X;***@@ 44444444X@@@@*;X44444444444444444444444444444",
"44444444444X;**@@ 4444444444X@@@*;X44444444444444444444444444444",
"4444444444X;X*@@X44444444444X@@@@*;X4444444444444444444444444444",
"444444444 ;**@XX4444444444444XXX**;X4444444444444444444444444444",
"444444444X;**@@X444444444444X@@@**;X4444444444444444444444444444",
"44444444 ;**@@X4444444444444X@@***X44444444444444444444444444444",
"44444444  *@@@X4444444444444X@***X444444444444444444444444444444",
"44444444 %  @ 4444444444444X%XX*X4444444444444444444444444444444",
"4444444 %%%% 44444444444444X%%oX44444444444444444444444444444444",
"4444444 %%% 44444444444444X%%oX444444444444444444444444444444444",
"4444444 %%o 44444444444444X%%X4444444444444444444444444444444444",
"4444444 %% 444444444444444X%oX4444444444444444444444444444444444",
"4444444 %o 44444444444444X%%X44444444444444444444444444444444444",
"444444 %% 444444444444444X%%X44444444444444444444444444444444444",
"444444 %o 444444444444444X%%X44444444444444444444444444444444444",
"44444 %%o 444444444444444X%%%X4444444444444444444444444444444444",
"44444 %% 444444444444444Xo%%%%XX44444444444444444444444444444444",
"4444 %%o 444444444444444Xoo%%%%%XX444444444444444444444444444444",
"4444 %%o 444444444444444Xooooo%%%%X44444444444444444444444444444"
};
