/* XPM */
static char *result[] = {
/* columns rows colors chars-per-pixel */
"64 64 64 1 ",
"  c #190201",
". c #1D0201",
"X c #1E0201",
"o c #200201",
"O c #240301",
"+ c #250302",
"@ c #290402",
"# c #2A0403",
"$ c #2B0403",
"% c #2C0503",
"& c #340604",
"* c #390705",
"= c #471007",
"- c #4D1107",
"; c #4E1107",
": c #58170D",
"> c #59170D",
", c #5E1B11",
"< c #601C11",
"1 c #641F15",
"2 c #661F15",
"3 c #652015",
"4 c #662016",
"5 c #6A2318",
"6 c #6C251A",
"7 c #752C20",
"8 c #772C21",
"9 c #7B2F24",
"0 c #7D3327",
"q c #83352A",
"w c #873B2F",
"e c #88392E",
"r c #8E3F34",
"t c #944639",
"y c #9B483D",
"u c #9A4B3E",
"i c #9A4D41",
"p c #9E4F42",
"a c #9D5145",
"s c #AB5B4D",
"d c #AE5E50",
"f c #B36557",
"g c #B26F5E",
"h c #B9685A",
"j c #C46F63",
"k c #CF7D6E",
"l c #D9776A",
"z c #DB8D7E",
"x c #DC8E7E",
"c c #E29F8E",
"v c #E9A997",
"b c #EEAB9A",
"n c #F0A292",
"m c #FFAE9B",
"M c #FFC1AF",
"N c #FFC2B3",
"B c #FFCFBA",
"V c #FFD3C8",
"C c #FFDDD0",
"Z c #FFE9DF",
"A c #FFEDDE",
"S c #FFFAEE",
"D c white",
"F c None",
/* pixels */
"FFFFFFFFFFFFFFFFFFFFFFFFFFFFFFFFFFFFFFFFFFFFFFFFFFFFFFFFFFFFFFFF",
"FFFFFFFFFFFFFFFFFFFFFFFFFFFFFFFFFFFFFFFFFFFFFFFFFFFFFFFFFFFFFFFF",
"FFFFFFFFFFFFFFFFFFFFFFFFFFFFFFFFFFFFFFFFFFFFFFFFFFFFFFFFFFFFFFFF",
"FFFFFFFFFFFFFFFFFFFFFFFFFFFFFFFFFFFFFFFFFFFFFFFFFFFFFFFFFFFFFFFF",
"FFFFFFFFFFFFFFFFFFFFFFFFFFFFFFFFFFFFFFFFFFFFFFFFFFFFFFFFFFFFFFFF",
"FFFFFFFFFFFFFFFFFFFFFFFFFFFFFFFFFFFFFFFFFFFFFFFFFFFFFFFFFFFFFFFF",
"FFFFFFFFFFFFFFFFFFFFFFFFFFFFFFFFFFFFFFFFFFFFFFFFFFFFFFFFFFFFFFFF",
"FFFFFFFFFFFFFFFFFFFFFFFFFFFFFFFFFFFFFFFFFFFFFFFFFFFFFFFFFFFFFFFF",
"FFFFFFFFFFFFFFFFFFFFFFFFFFFFFFFFFFFFFFFFFFFFFFFFFFFFFFFFFFFFFFFF",
"FFFFFFFFFFFFFFFFFFFFFFFFFFFFFFFFFFFFFFFFFFFFFFFFFFFFFFFFFFFFFFFF",
"FFFFFFFFFFFFFFFFFFFFFFFFFFFFFFFFFFFFFFFFFFFFFFFFFFFFFFFFFFFFFFFF",
"FFFFFFFFFFFFFFFFFFFFFFFFFFFFFFFFFFFFFFFFFFFFFFFFFFFFFFFFFFFFFFFF",
"FFFFFFFFFFFFFFFFFFFFFFFFFFFFFFFFFFFFFFFFFFFFFFFFFFFFFFFFFFFFFFFF",
"FFFFFFFFFFFFFFFFFFFFFFFFFFFFFFFFFFFFFFFFFFFFFFFFFFFFFFFFFFFFFFFF",
"FFFFFFFFFFFFFFFFFFFFFFFFFFFFFFFFFFFFFFFFFFFFFFFFFFFFFFFFFFFFFFFF",
"FFFFFFFFFFFFFFFFFFFFFFFFFFFFFFFFFFFFFFFFFFFFFFFFFFFFFFFFFFFFFFFF",
"FFFFFFFFFFFFFFFFFFFFFFFFFFFF$$$&&&&**FFFFFFFFFFFFFFFFFFFFFFFFFFF",
"FFFFFFFFFFFFFFFFFFFFFFFFF%$$zk999ClmB**FFFFFFFFFFFFFFFFFFFFFFFFF",
"FFFFFFFFFFFFFFFFFFFFFFF#%zky>2CDCBBlmBA*FFFFFFFFFFFFFFFFFFFFFFFF",
"FFFFFFFFFFFFFFFFFFFFFF#ikq>5kCMMjmBlllBS*FFFFFFFFFFFFFFFFFFFFFFF",
"FFFFFFFFFFFFFFFFFFFFF@8u>>uhnMMjCBlmBAlmD*FFFFFFFFFFFFFFFFFFFFFF",
"FFFFFFFFFFFFFFFFFFFF@tq>kykynnjCMmlllmBBBA*FFFFFFFFFFFFFFFFFFFFF",
"FFFFFFFFFFFFFFFFFFF+tu>kyVnMyjyMnlAADlmllBl*FFFFFFFFFFFFFFFFFFFF",
"FFFFFFFFFFFFFFFFFF@8w>ukzyhnMyMnjMmlBAlBSml*FFFFFFFFFFFFFFFFFFFF",
"FFFFFFFFFFFFFFFFFF@t:syhhkyyyCnjjnlBlDlmBlBA*FFFFFFFFFFFFFFFFFFF",
"FFFFFFFFFFFFFFFFF@tt:qkbyykCyyyhMjmBlSlllSlB*FFFFFFFFFFFFFFFFFFF",
"FFFFFFFFFFFFFFFFF@8:ishyhMCjnkCyhMjlBAlmBAlBA&FFFFFFFFFFFFFFFFFF",
"FFFFFFFFFFFFFFFFFOt:wuyhMyyyMyMCyhMBAlmllBAlM&FFFFFFFFFFFFFFFFFF",
"FFFFFFFFFFFFFFFFFO0:88ukykzyhyhjCyyjlmBBAlBjM&FFFFFFFFFFFFFFFFFF",
"FFFFFFFFFFFFFFFFF.4-wiqhbyyMyyykMCZCMjMCjnMCjM&FFFFFFFFFFFFFFFFF",
"FFFFFFFFFFFFFFFFFO3-8t8uyNCnMh8hyjjMjnMjnMCjjj&FFFFFFFFFFFFFFFFF",
"FFFFFFFFFFFFFFFFFFo,-wi8ixkyxrw8hMMnynnyMMjCCM&FFFFFFFFFFFFFFFFF",
"FFFFFFFFFFFFFFFFFFo3-6t8gtpedw:2qhyyMjhhnjCMyn&FFFFFFFFFFFFFFFFF",
"FFFFFFFFFFFFFFFFFFF 3-686w8tw>zkhykCjZyyjMkyhs&FFFFFFFFFFFFFFFFF",
"FFFFFFFFFFFFFFFFFFFF 3-6<<66:wthuqMnckyCyhh>>u&FFFFFFFFFFFFFFFFF",
"FFFFFFFFFFFFFFFFFFFFF   X===t>wwqvhyyyCMh>>su$FFFFFFFFFFFFFFFFFF",
"FFFFFFFFFFFFFFFFFFFFFFFFF ,68f1tguykhbMh>suqu@FFFFFFFFFFFFFFFFFF",
"FFFFFFFFFFFFFFFFFFFFFFFFFFo33wt::8wuquu>aqsw+FFFFFFFFFFFFFFFFFFF",
"FFFFFFFFFFFFFFFFFFFFFFFFFFF+@;:wf::::::t8tw@FFFFFFFFFFFFFFFFFFFF",
"FFFFFFFFFFFFFFFFFFFFFFFFFFFFFo3:wf8t:776w+@FFFFFFFFFFFFFFFFFFFFF",
"FFFFFFFFFFFFFFFFFFFFFFFFFFFFFF 3:ww67:+++FFFFFFFFFFFFFFFFFFFFFFF",
"FFFFFFFFFFFFFFFFFFFFFFFFFFFFFFF 3::68+FFFFFFFFFFFFFFFFFFFFFFFFFF",
"FFFFFFFFFFFFFFFFFFFFFFFFFFFFFFFFX 3:7@FFFFFFFFFFFFFFFFFFFFFFFFFF",
"FFFFFFFFFFFFFFFFFFFFFFFFFFFFFFFFFFX++FFFFFFFFFFFFFFFFFFFFFFFFFFF",
"FFFFFFFFFFFFFFFFFFFFFFFFFFFFFFFFFFFFFFFFFFFFFFFFFFFFFFFFFFFFFFFF",
"FFFFFFFFFFFFFFFFFFFFFFFFFFFFFFFFFFFFFFFFFFFFFFFFFFFFFFFFFFFFFFFF",
"FFFFFFFFFFFFFFFFFFFFFFFFFFFFFFFFFFFFFFFFFFFFFFFFFFFFFFFFFFFFFFFF",
"FFFFFFFFFFFFFFFFFFFFFFFFFFFFFFFFFFFFFFFFFFFFFFFFFFFFFFFFFFFFFFFF",
"FFFFFFFFFFFFFFFFFFFFFFFFFFFFFFFFFFFFFFFFFFFFFFFFFFFFFFFFFFFFFFFF",
"FFFFFFFFFFFFFFFFFFFFFFFFFFFFFFFFFFFFFFFFFFFFFFFFFFFFFFFFFFFFFFFF",
"FFFFFFFFFFFFFFFFFFFFFFFFFFFFFFFFFFFFFFFFFFFFFFFFFFFFFFFFFFFFFFFF",
"FFFFFFFFFFFFFFFFFFFFFFFFFFFFFFFFFFFFFFFFFFFFFFFFFFFFFFFFFFFFFFFF",
"FFFFFFFFFFFFFFFFFFFFFFFFFFFFFFFFFFFFFFFFFFFFFFFFFFFFFFFFFFFFFFFF",
"FFFFFFFFFFFFFFFFFFFFFFFFFFFFFFFFFFFFFFFFFFFFFFFFFFFFFFFFFFFFFFFF",
"FFFFFFFFFFFFFFFFFFFFFFFFFFFFFFFFFFFFFFFFFFFFFFFFFFFFFFFFFFFFFFFF",
"FFFFFFFFFFFFFFFFFFFFFFFFFFFFFFFFFFFFFFFFFFFFFFFFFFFFFFFFFFFFFFFF",
"FFFFFFFFFFFFFFFFFFFFFFFFFFFFFFFFFFFFFFFFFFFFFFFFFFFFFFFFFFFFFFFF",
"FFFFFFFFFFFFFFFFFFFFFFFFFFFFFFFFFFFFFFFFFFFFFFFFFFFFFFFFFFFFFFFF",
"FFFFFFFFFFFFFFFFFFFFFFFFFFFFFFFFFFFFFFFFFFFFFFFFFFFFFFFFFFFFFFFF",
"FFFFFFFFFFFFFFFFFFFFFFFFFFFFFFFFFFFFFFFFFFFFFFFFFFFFFFFFFFFFFFFF",
"FFFFFFFFFFFFFFFFFFFFFFFFFFFFFFFFFFFFFFFFFFFFFFFFFFFFFFFFFFFFFFFF",
"FFFFFFFFFFFFFFFFFFFFFFFFFFFFFFFFFFFFFFFFFFFFFFFFFFFFFFFFFFFFFFFF",
"FFFFFFFFFFFFFFFFFFFFFFFFFFFFFFFFFFFFFFFFFFFFFFFFFFFFFFFFFFFFFFFF",
"FFFFFFFFFFFFFFFFFFFFFFFFFFFFFFFFFFFFFFFFFFFFFFFFFFFFFFFFFFFFFFFF"
};
