/* XPM */
static char *result[] = {
/* columns rows colors chars-per-pixel */
"64 64 25 1 ",
"  c black",
". c #010000",
"X c #010102",
"o c #060404",
"O c #0E070B",
"+ c #110D0F",
"@ c #0D0A17",
"# c #0F1112",
"$ c #0F1612",
"% c #251914",
"& c #2F1418",
"* c #201C31",
"= c #312723",
"- c #21283A",
"; c #2D363F",
": c #421020",
"> c #503B29",
", c #672D35",
"< c #52632E",
"1 c #5E6834",
"2 c #444563",
"3 c #FF6A00",
"4 c orange",
"5 c #6A768F",
"6 c None",
/* pixels */
"6666666666666666666666666666666666666666666666666666666666666666",
"6666666666666666666666666.......66666666666666666666666666666666",
"666666666666666666666666.=<<<<<=.6666666666666666666666666666666",
"666666666666666666666666.======<.6666666666666666666666666666666",
"66666666666666666666666.========<.666666666666666666666666666666",
"66666666666666666666666.========<.666666666666666666666666666666",
"6666666666666666666666.==...%===<.666666666666666666666666666666",
"66666666666666666666666..344 %===.666666666666666666666666666666",
"666666666666666666666666. 333.%=%. 66666666666666666666666666666",
"666666666666666666666666.@    .%%.> 6666666666666666666666666666",
"666666666666666666666666.@@@@@...>= 6666666666666666666666666666",
"66666666666666666666666 >.@@@@. >=== 666666666666666666666666666",
"66666666666666666666666 >.@@.. >=== > 66666666666666666666666666",
"66666666666666666666 666 >..   === >== 6666666666666666666666666",
"666666666666666666  ; 66    ---  = >== 6666666666666666666666666",
"6666666666666666  ;  ; 6  ----- = >===# 666666666666666666666666",
"66666666666666  ;  66 ;  --5----  >===# 666666666666666666666666",
"666666666666  ;  6666  --555-OO-  >==## 666666666666666666666666",
"6666666666  ;  6666  ----5-OO  OO >==# 6666666666666666666666666",
"666666666 ;; 6666  --- --OO  **  >===# 6666666666666666666666666",
"666666666 ; 666  ---  -    ** ** >==## 6666666666666666666666666",
"666666666 ; 6  ---  -  >>>     * >==##  666666666666666666666666",
"6666666666   - -  -O , ===>>>>   >==# * 666666666666666666666666",
"666666666  --., .OO  ,, ##====>>> ==#   666666666666666666666666",
"666666666 ---.,,:   ,,::  ##===== =#  $$ 66666666666666666666666",
"66666666 ; --.,::.=   : ;   ##=====# $$$ 66666666666666666666666",
"666666666  ++  ..===##  ; $$  ###=# $ $  66666666666666666666666",
"6666666  2   6.####### 1 $$ $$   ## $  1 66666666666666666666666",
"66666  2  66666....... 1    $$$$$     11 66666666666666666666666",
"6666 2  66666666666666 1 11       111 1 666666666666666666666666",
"6666  66666666666666666  11 11111 111  6666666666666666666666666",
"6666666666666666666666666   11111    : 6666666666666666666666666",
"6666666666666666666666666 ::     :::: > 666666666666666666666666",
"666666666666666666666666 > :::::::   ==> 66666666666666666666666",
"666666666666666666666666 ==       =====> 66666666666666666666666",
"66666666666666666666666 >==#.1.#========> 6666666666666666666666",
"66666666666666666666666 ===#.1.#========> 6666666666666666666666",
"6666666666666666666666 >===#.1.#=========# 666666666666666666666",
"6666666666666666666666 >==#.1.###=======# 6666666666666666666666",
"6666666666666666666666 ===#.1.###=====##  6666666666666666666666",
"666666666666666666666 > #=#.1.########  => 666666666666666666666",
"666666666666666666666 >= ##.1.#####.  ===> 666666666666666666666",
"666666666666666666666X>== ..1.##...###===> 666666666666666666666",
"666666666666666666666X>==###....66 ###====> 66666666666666666666",
"66666666666666666666 >==####X666666 ###===>X66666666666666666666",
"66666666666666666666X>=####X66666666 ##===>X66666666666666666666",
"66666666666666666666X>=###X6666666666 ##==>X66666666666666666666",
"6666666666666666666X>=####X66666666666X##=X>X6666666666666666666",
"6666666666666666666X>==XXX6666666666666XX#==> 666666666666666666",
"6666666666666666666X>==###X666666666666X##==>X666666666666666666",
"66666666666666666666X===##X6666666666666X##==> 66666666666666666",
"666666666666666666666X===#X6666666666666X###=  66666666666666666",
"6666666666666666666666X=XX&X6666666666666 #  & 66666666666666666",
"66666666666666666666666Xo&&X66666666666666 &&&& 6666666666666666",
"666666666666666666666666Xo&&X66666666666666 &&& 6666666666666666",
"6666666666666666666666666X&&X66666666666666 o&& 6666666666666666",
"6666666666666666666666666Xo&X666666666666666 && 6666666666666666",
"66666666666666666666666666X&&X66666666666666 o& 6666666666666666",
"66666666666666666666666666X&&X666666666666666 && 666666666666666",
"66666666666666666666666666X&&X666666666666666 o& 666666666666666",
"6666666666666666666666666X&&&X666666666666666 o&& 66666666666666",
"66666666666666666666666XX&&&&oX666666666666666 && 66666666666666",
"666666666666666666666XX&&&&&ooX666666666666666 o&& 6666666666666",
"66666666666666666666X&&&&oooooX666666666666666 o&& 6666666666666"
};
