/* XPM */
static char *result[] = {
/* columns rows colors chars-per-pixel */
"64 64 16 1 ",
"  c black",
". c #010000",
"X c #010102",
"o c #0D0A17",
"O c #0F1112",
"+ c #0F1612",
"@ c #251914",
"# c #2F1418",
"$ c #312723",
"% c #421020",
"& c #503B29",
"* c #52632E",
"= c #5E6834",
"- c #FF6A00",
"; c orange",
": c None",
/* pixels */
"::::::::::::::::::::::::::::::::::::::::::::::::::::::::::::::::",
"::::::::::::::::::::::::::::::::::::::::::::::::::::::::::::::::",
"::::::::::::::::::::::::::::::::::::::::::::::::::::::::::::::::",
"::::::::::::::::::::.......:::::::::::::::::::::::::::::::::::::",
":::::::::::::::::::.$*****$.::::::::::::::::::::::::::::::::::::",
":::::::::::::::::::.$$$$$$*.::::::::::::::::::::::::::::::::::::",
"::::::::::::::::::.$$$$$$$$*.:::::::::::::::::::::::::::::::::::",
"::::::::::::::::::.$$$$$$$$*.:::::::::::::::::::::::::::::::::::",
":::::::::::::::::.$$...@$$$*.:::::::::::::::::::::::::::::::::::",
"::::::::::::::::::..-;; @$$$.:::::::::::::::::::::::::::::::::::",
":::::::::::::::::::. ---.@$@.  :::::::::::::::::::::::::::::::::",
":::::::::::::::::::.o    .@ &&& ::::::::::::::::::::::::::::::::",
":::::::::::::::::::.ooooo. &&&&&  ::::::::::::::::::::::::::::::",
"::::::::::::::::::::.oooo &&  &&&& :::::::::::::::::::::::::::::",
"::::::::::::::::::::.oo..&  oo  && :::::::::::::::::::::::::::::",
":::::::::::::::::::::..&& oo  &$  ::::::::::::::::::::::::::::::",
":::::::::::::::::::::: & oo &&$$$  :::::::::::::::::::::::::::::",
"::::::::::::::::::::::: oo &&$$$$$  ::::::::::::::::::::::::::::",
"::::::::::::::::::::::: oo &$$$$O$ o :::::::::::::::::::::::::::",
"::::::::::::::::::::::: oo &$$$$O$$  :::::::::::::::::::::::::::",
":::::::::::::::::::::::: o &$$$OOO$ o ::::::::::::::::::::::::::",
":::::::::::::::::::::::: o &$$$O O$ o ::::::::::::::::::::::::::",
":::::::::::::::::::::::: o &$$$O O ooo :::::::::::::::::::::::::",
"::::::::::::::::::::::::: &$$$OO  oooo :::::::::::::::::::::::::",
"::::::::::::::::::::::::: &$$$O o    oo ::::::::::::::::::::::::",
"::::::::::::::::::::::::: &$$OO  ++++ o ::::::::::::::::::::::::",
":::::::::::::::::::::::: &$$$O + +++  oo :::::::::::::::::::::::",
":::::::::::::::::::::::: &$$OO   +  = oo :::::::::::::::::::::::",
"::::::::::::::::::::::: &$$$O === === o ::::::::::::::::::::::::",
"::::::::::::::::::::::: &$$OO ===    o % :::::::::::::::::::::::",
"::::::::::::::::::::::: &$$O     ooo  %  :::::::::::::::::::::::",
"::::::::::::::::::::::: &$OO oooo   %% $& ::::::::::::::::::::::",
"::::::::::::::::::::::::    :    %%   $$& ::::::::::::::::::::::",
"::::::::::::::::::::::::::::::     $$$$$& ::::::::::::::::::::::",
"::::::::::::::::::::::::::::: &$$$$$$$$$O& :::::::::::::::::::::",
":::::::::::::::::::::::::::: &&$$$$$$$$OO& :::::::::::::::::::::",
":::::::::::::::::::::::::::: &$$$$$$$OOOO& :::::::::::::::::::::",
"::::::::::::::::::::::::::: &$$$$$$$OOOO&& :::::::::::::::::::::",
"::::::::::::::::::::::::::: &$$$$$$OOOO&&& :::::::::::::::::::::",
":::::::::::::::::::::::::::  $$$$$OOOOO   ::::::::::::::::::::::",
"::::::::::::::::::::::::::: &          :::::::::::::::::::::::::",
"::::::::::::::::::::::::::: &$$OOOO O$ :::::::::::::::::::::::::",
"::::::::::::::::::::::::::: &$OOOO OO$ :::::::::::::::::::::::::",
":::::::::::::::::::::::::: &$OOOO OO$ ::::::::::::::::::::::::::",
":::::::::::::::::::::::::: &$$   OOO$ ::::::::::::::::::::::::::",
":::::::::::::::::::::::::: &$$$$$ O$$ ::::::::::::::::::::::::::",
"::::::::::::::::::::::::::: &&$$ # $$ ::::::::::::::::::::::::::",
"::::::::::::::::::::::::::::  & ###  :::::::::::::::::::::::::::",
"::::::::::::::::::::::::::::::  #####    :::::::::::::::::::::::",
"::::::::::::::::::::::::::::::::  ####### ::::::::::::::::::::::",
"::::::::::::::::::::::::::::::::X$  ##### ::::::::::::::::::::::",
":::::::::::::::::::::::::::::::::X$$  ### ::::::::::::::::::::::",
"::::::::::::::::::::::::::::::::::X ## ## ::::::::::::::::::::::",
":::::::::::::::::::::::::::::::::::X### ## :::::::::::::::::::::",
"::::::::::::::::::::::::::::::::::::X## ## :::::::::::::::::::::",
":::::::::::::::::::::::::::::::::::::X## # :::::::::::::::::::::",
":::::::::::::::::::::::::::::::::::::X##X# :::::::::::::::::::::",
"::::::::::::::::::::::::::::::::::::::X##X :::::::::::::::::::::",
"::::::::::::::::::::::::::::::::::::::X##X::::::::::::::::::::::",
"::::::::::::::::::::::::::::::::::::::X##X::::::::::::::::::::::",
":::::::::::::::::::::::::::::::::::::X###X::::::::::::::::::::::",
":::::::::::::::::::::::::::::::::::XX#####X:::::::::::::::::::::",
":::::::::::::::::::::::::::::::::XX#######X:::::::::::::::::::::",
"::::::::::::::::::::::::::::::::X#########X:::::::::::::::::::::"
};
