/* XPM */
static char *result[] = {
/* columns rows colors chars-per-pixel */
"64 64 16 1 ",
"  c black",
". c #010000",
"X c #010102",
"o c #0D0A17",
"O c #0F1112",
"+ c #0F1612",
"@ c #251914",
"# c #2F1418",
"$ c #312723",
"% c #421020",
"& c #503B29",
"* c #52632E",
"= c #5E6834",
"- c #FF6A00",
"; c orange",
": c None",
/* pixels */
"::::::::::::::::::::::::::::::::::::::::::::::::::::::::::::::::",
"::::::::::::::::::::::::::::::::::::::::::::::::::::::::::::::::",
"::::::::::::::::::::::::::::::::::::::::::::::::::::::::::::::::",
"::::::::::::::::::::::::::::::::::::::::::::::::::::::::::::::::",
"::::::::::::::::::::::::::::::::::::::::::::::::::::::::::::::::",
"::::::::::::::::::::.......:::::::::::::::::::::::::::::::::::::",
":::::::::::::::::::.$*****$.::::::::::::::::::::::::::::::::::::",
":::::::::::::::::::.$$$$$$*.::::::::::::::::::::::::::::::::::::",
"::::::::::::::::::.$$$$$$$$*.:::::::::::::::::::::::::::::::::::",
"::::::::::::::::::.$$$$$$$$*.:::::::::::::::::::::::::::::::::::",
":::::::::::::::::.$$...@$$$*.:::::::::::::::::::::::::::::::::::",
"::::::::::::::::::..-;; @$$$.:::::::::::::::::::::::::::::::::::",
":::::::::::::::::::. ---.@$@.  :::::::::::::::::::::::::::::::::",
":::::::::::::::::::.o    .@ &&& ::::::::::::::::::::::::::::::::",
":::::::::::::::::::.ooooo. &&&&&  ::::::::::::::::::::::::::::::",
"::::::::::::::::::::.oooo &&  &&&& :::::::::::::::::::::::::::::",
"::::::::::::::::::::.oo..&  o   && :::::::::::::::::::::::::::::",
":::::::::::::::::::::..&& o  &&$  ::::::::::::::::::::::::::::::",
":::::::::::::::::::::: & o &&&$$$  :::::::::::::::::::::::::::::",
"::::::::::::::::::::::: o &$$$O$$$  ::::::::::::::::::::::::::::",
"::::::::::::::::::::::: o &$$$OOO$  ::::::::::::::::::::::::::::",
"::::::::::::::::::::::: o &$$$O OO$  :::::::::::::::::::::::::::",
":::::::::::::::::::::::: &$$$$O OOO  :::::::::::::::::::::::::::",
":::::::::::::::::::::::: &$$$OO OOO o ::::::::::::::::::::::::::",
":::::::::::::::::::::::: &$$$O OOO oo ::::::::::::::::::::::::::",
":::::::::::::::::::::::: &$$OO    oooo :::::::::::::::::::::::::",
"::::::::::::::::::::::: &$$$O o    ooo :::::::::::::::::::::::::",
"::::::::::::::::::::::: &$$OO  ++++ oo :::::::::::::::::::::::::",
":::::::::::::::::::::: &$$$O + +++  ooo ::::::::::::::::::::::::",
":::::::::::::::::::::: &$$OO   +  = ooo ::::::::::::::::::::::::",
":::::::::::::::::::::: &$$O  == === ooo ::::::::::::::::::::::::",
":::::::::::::::::::::: &&OO ===    ooo % :::::::::::::::::::::::",
":::::::::::::::::::::::    ===  oooo  %  :::::::::::::::::::::::",
":::::::::::::::::::::::::     ooo   %% $& ::::::::::::::::::::::",
"::::::::::::::::::::::::::::     %%   $$& ::::::::::::::::::::::",
"::::::::::::::::::::::::::: &$     $$$$$& ::::::::::::::::::::::",
"::::::::::::::::::::::::::: &$$$$$OO$$$$$& :::::::::::::::::::::",
":::::::::::::::::::::::::: &$$$$$$OO$$$$$& :::::::::::::::::::::",
":::::::::::::::::::::::::: &$$$$$OOO$$$$$& :::::::::::::::::::::",
":::::::::::::::::::::::::  &$$$$OOO$$$$$$& :::::::::::::::::::::",
"::::::::::::::::::::::::: & $$$OOOO$$$$$$& :::::::::::::::::::::",
":::::::::::::::::::::::: &$$ $OOOO$$$$$   ::::::::::::::::::::::",
":::::::::::::::::::::::: &$$$           ::::::::::XXX:::::::::::",
"::::::::::::::::::::::: &$$$$$$OOO OOOO ::::::XXXX### ::::::::::",
"::::::::::::::::::::::: &$$$$OOO  OOOOO :::XXX####### ::::::::::",
"::::::::::::::::::::::: &$$$OO   $$OOO ::XX########## ::::::::::",
":::::::::::::::::::::: &$$ OO :: $$OOOXXX#####XXX#### ::::::::::",
":::::::::::::::::::::: &$$O  ::: $$$OXOOOX##XX:::X### ::::::::::",
":::::::::::::::::::::: &$$O :::: $$$OXOO$X#X:::::: ### :::::::::",
"::::::::::::::::::::::   OO :::: $$$$XO$$$X:::::::: ## :::::::::",
":::::::::::::::::::::: ##   :::: $$$$$$$$X:::::::::: # :::::::::",
":::::::::::::::::::::: #### ::::: $$$$$$X::::::::::: # :::::::::",
":::::::::::::::::::::: ### ::::::   $&&X:::::::::::::  :::::::::",
":::::::::::::::::::::: ### ::::::::: XX:::::::::::::::::::::::::",
":::::::::::::::::::::: ## ::::::::::::::::::::::::::::::::::::::",
":::::::::::::::::::::: ## ::::::::::::::::::::::::::::::::::::::",
":::::::::::::::::::::: ## ::::::::::::::::::::::::::::::::::::::",
":::::::::::::::::::::: ## ::::::::::::::::::::::::::::::::::::::",
"::::::::::::::::::::: ## :::::::::::::::::::::::::::::::::::::::",
"::::::::::::::::::::: ## :::::::::::::::::::::::::::::::::::::::",
":::::::::::::::::::: ### :::::::::::::::::::::::::::::::::::::::",
"::::::::::::::::::  #### :::::::::::::::::::::::::::::::::::::::",
"::::::::::::::::  ###### :::::::::::::::::::::::::::::::::::::::",
"::::::::::::::: ######## :::::::::::::::::::::::::::::::::::::::"
};
