/* XPM */
static char *result[] = {
/* columns rows colors chars-per-pixel */
"64 64 16 1 ",
"  c black",
". c #010000",
"X c #010102",
"o c #0D0A17",
"O c #0F1112",
"+ c #0F1612",
"@ c #251914",
"# c #2F1418",
"$ c #312723",
"% c #421020",
"& c #503B29",
"* c #52632E",
"= c #5E6834",
"- c #FF6A00",
"; c orange",
": c None",
/* pixels */
"::::::::::::::::::::::::::::::::::::::::::::::::::::::::::::::::",
"::::::::::::::::::::::::::::::::::::::::::::::::::::::::::::::::",
"::::::::::::::::::::::::::::::::::::::::::::::::::::::::::::::::",
"::::::::::::::::::::::::::::::::::::::::::::::::::::::::::::::::",
"::::::::::::::::::::::::::::::::::::::::::::::::::::::::::::::::",
"::::::::::::::::::.......:::::::::::::::::::::::::::::::::::::::",
":::::::::::::::::.$*****$.::::::::::::::::::::::::::::::::::::::",
":::::::::::::::::.$$$$$$*.::::::::::::::::::::::::::::::::::::::",
"::::::::::::::::.$$$$$$$$*.:::::::::::::::::::::::::::::::::::::",
"::::::::::::::::.$$$$$$$$*.:::::::::::::::::::::::::::::::::::::",
":::::::::::::::.$$...@$$$*.:::::::::::::::::::::::::::::::::::::",
"::::::::::::::::..-;; @$$$.:::::::::::::::::::::::::::::::::::::",
":::::::::::::::::. ---.@$@.  :::::::::::::::::::::::::::::::::::",
":::::::::::::::::.o    .@ &&& ::::::::::::::::::::::::::::::::::",
":::::::::::::::::.ooooo. &&&&&  ::::::::::::::::::::::::::::::::",
"::::::::::::::::::.oooo &&  &&&& :::::::::::::::::::::::::::::::",
"::::::::::::::::::.oo..&  oo  && :::::::::::::::::::::::::::::::",
":::::::::::::::::::..&& oo  &$  ::::::::::::::::::::::::::::::::",
":::::::::::::::::::: & oo &&$$$  :::::::::::::::::::::::::::::::",
"::::::::::::::::::::: oo &$$$$$$  ::::::::::::::::::::::::::::::",
"::::::::::::::::::::: oo &$$$$$$  ::::::::::::::::::::::::::::::",
"::::::::::::::::::::: oo &$$$O $$  :::::::::::::::::::::::::::::",
":::::::::::::::::::::: o &$$$O $$  :::::::::::::::::::::::::::::",
"::::::::::::::::::::::  &$$$OO O$ o ::::::::::::::::::::::::::::",
"::::::::::::::::::::::  &$$OO OO oo ::::::::::::::::::::::::::::",
"::::::::::::::::::::::: &$$OO   oooo :::::::::::::::::::::::::::",
":::::::::::::::::::::: &$$OOO    ooo :::::::::::::::::::::::::::",
":::::::::::::::::::::: &$$OO ++++ oo :::::::::::::::::::::::::::",
"::::::::::::::::::::: &$$OOO +++  ooo ::::::::::::::::::::::::::",
"::::::::::::::::::::: &$$OO  +  = ooo ::::::::::::::::::::::::::",
"::::::::::::::::::::: &&$O  = === ooo ::::::::::::::::::::::::::",
"::::::::::::::::::::: &&&O ==    ooo % :::::::::::::::::::::::::",
"::::::::::::::::::::::    ==  oooo  %  :::::::::::::::::::::::::",
":::::::::::::::::::::::     ooo   %% $& ::::::::::::::::::::::::",
":::::::::::::::::::::::::::    %%   $$& ::::::::::::::::::::::::",
":::::::::::::::::::::::::: &     O$$$$& ::::::::::::::::::::::::",
":::::::::::::::::::::::::: &$$$$$O$$$$$& :::::::::::::::::::::::",
"::::::::::::::::::::::::: &$$$$$OO$$$$$& :::::::::::::::::::::::",
"::::::::::::::::::::::::: &$$$$$OO$$$$&& :::::::::::::::::::::::",
"::::::::::::::::::::::::: &$$$$OOO$$$$&& :::::::::::::::::::::::",
"::::::::::::::::::::::::: &$$$OOO$$$&&&& :::::::::::::::::::::::",
":::::::::::::::::::::::::: $$OOO$&&&&   ::::::::::::::::::::::::",
"::::::::::::::::::::::::::X          :::::::::::::::::::::::::::",
"::::::::::::::::::::::::::X&$OOOOOX:::::::::::::::::::::::::::::",
"::::::::::::::::::::::::: &$$OOOOX::::::::::::::::::::::::::::::",
":::::::::::::::::::::::::X&$OOOOXO :::::::::::::::::::::::::::::",
":::::::::::::::::::::::::X&$OOOXOOO  X::::::XXX:::::::::::::::::",
"::::::::::::::::::::::::X&$OOOOXOO$ ##XXXXXX### ::::::::::::::::",
"::::::::::::::::::::::::X&$$XXXXO$$X########### ::::::::::::::::",
"::::::::::::::::::::::::X&$$OOOX$$$ ########### ::::::::::::::::",
":::::::::::::::::::::::::X$$$OOX&XXXXXXXXXX#### ::::::::::::::::",
"::::::::::::::::::::::::::X$$$OXX::::::::::X### ::::::::::::::::",
":::::::::::::::::::::::::::X$XX#X::::::::::: ### :::::::::::::::",
"::::::::::::::::::::::::::::X###X:::::::::::: ## :::::::::::::::",
":::::::::::::::::::::::::::::X###X:::::::::::: # :::::::::::::::",
"::::::::::::::::::::::::::::::X##X:::::::::::: # :::::::::::::::",
"::::::::::::::::::::::::::::::X##X:::::::::::::  :::::::::::::::",
":::::::::::::::::::::::::::::::X##X:::::::::::::::::::::::::::::",
":::::::::::::::::::::::::::::::X##X:::::::::::::::::::::::::::::",
":::::::::::::::::::::::::::::::X##X:::::::::::::::::::::::::::::",
"::::::::::::::::::::::::::::::X###X:::::::::::::::::::::::::::::",
"::::::::::::::::::::::::::::XX#####X::::::::::::::::::::::::::::",
"::::::::::::::::::::::::::XX#######X::::::::::::::::::::::::::::",
":::::::::::::::::::::::::X#########X::::::::::::::::::::::::::::"
};
