/* XPM */
static char *result[] = {
/* columns rows colors chars-per-pixel */
"64 64 16 1 ",
"  c black",
". c #010000",
"X c #010102",
"o c #0D0A17",
"O c #0F1112",
"+ c #0F1612",
"@ c #251914",
"# c #2F1418",
"$ c #312723",
"% c #421020",
"& c #503B29",
"* c #52632E",
"= c #5E6834",
"- c #FF6A00",
"; c orange",
": c None",
/* pixels */
"::::::::::::::::::::::::::::::::::::::::::::::::::::::::::::::::",
"::::::::::::::::::::::::::::::::::::::::::::::::::::::::::::::::",
"::::::::::::::::::::::::::::::::::::::::::::::::::::::::::::::::",
"::::::::::::::::::::::::::::::::::::::::::::::::::::::::::::::::",
"::::::::::::::::::.......:::::::::::::::::::::::::::::::::::::::",
":::::::::::::::::.$*****$.::::::::::::::::::::::::::::::::::::::",
":::::::::::::::::.$$$$$$*.::::::::::::::::::::::::::::::::::::::",
"::::::::::::::::.$$$$$$$$*.:::::::::::::::::::::::::::::::::::::",
"::::::::::::::::.$$$$$$$$*.:::::::::::::::::::::::::::::::::::::",
":::::::::::::::.$$...@$$$*.:::::::::::::::::::::::::::::::::::::",
"::::::::::::::::..-;; @$$$.:::::::::::::::::::::::::::::::::::::",
":::::::::::::::::. ---.@$@.  :::::::::::::::::::::::::::::::::::",
":::::::::::::::::.o    .@ &&& ::::::::::::::::::::::::::::::::::",
":::::::::::::::::.ooooo. &&&&&  ::::::::::::::::::::::::::::::::",
"::::::::::::::::::.oooo &&  &&&& :::::::::::::::::::::::::::::::",
"::::::::::::::::::.oo..&  oo  && :::::::::::::::::::::::::::::::",
":::::::::::::::::::..&& oo  &$  ::::::::::::::::::::::::::::::::",
":::::::::::::::::::: & oo &&$$$  :::::::::::::::::::::::::::::::",
"::::::::::::::::::::: oo &&$$OO$  ::::::::::::::::::::::::::::::",
"::::::::::::::::::::: oo &$$$OO$  ::::::::::::::::::::::::::::::",
"::::::::::::::::::::: oo &$$$O O$  :::::::::::::::::::::::::::::",
":::::::::::::::::::::: o &$$OO O$  :::::::::::::::::::::::::::::",
"::::::::::::::::::::::  &$$$OO O$ o ::::::::::::::::::::::::::::",
"::::::::::::::::::::::  &$$$O OO oo ::::::::::::::::::::::::::::",
"::::::::::::::::::::    &$$$O   oooo :::::::::::::::::::::::::::",
"::::::::::::::::::: && &$$$O o    oo :::::::::::::::::::::::::::",
"::::::::::::::::::: &$ &$$$O  ++++ o :::::::::::::::::::::::::::",
"::::::::::::::::::: & &$$$O + +++  oo ::::::::::::::::::::::::::",
"::::::::::::::::::: & &$$$O = +  = oo ::::::::::::::::::::::::::",
"::::::::::::::::::::  &$$OO == === oo ::::::::::::::::::::::::::",
"::::::::::::::::::::  &&&O ===    oo % :::::::::::::::::::::::::",
"::::::::::::::::::::::    ==   ooo  %  :::::::::::::::::::::::::",
":::::::::::::::::::::::      oo   %% $& ::::::::::::::::::::::::",
":::::::::::::::::::::::::::    %%   $$& ::::::::::::::::::::::::",
":::::::::::::::::::::::::: &     $$$$$& ::::::::::::::::::::::::",
"::::::::::::::::::::::::::  = $$$$$$$$$& :::::::::::::::::::::::",
"::::::::::::::::::::::::: & = $$$$$$$$$& :::::::::::::::::::::::",
":::::::::::::::::::::::::  = $$$$$$$$$$& :::::::::::::::::::::::",
":::::::::::::::::::::::::  = $$$$$$$$$&& :::::::::::::::::::::::",
":::::::::::::::::::::::::  = $$$$$$$&&&& :::::::::::::::::::::::",
":::::::::::::::::::::::: & = $$$$&&&&&  ::::::::::::::::::::::::",
":::::::::::::::::::::::: &$           O :::::::::::XXX::::::::::",
"::::::::::::::::::::::: &$$$$OO OOOOOOO :::::::XXXX### :::::::::",
"::::::::::::::::::::::: &$$$OOO $$OOOOO ::::XXX####### :::::::::",
":::::::::::::::::::::: &$$$$OOO &$$$OOO ::XX########## :::::::::",
":::::::::::::::::::::: &$$$OOO : $$$OOOXXX#####XXX#### :::::::::",
"::::::::::::::::::::: &$$$$OO :: &$$$OXOOOX##XX:::X### :::::::::",
"::::::::::::::::::::: &$$$OO :::: &$$$XOO$X#X:::::: ### ::::::::",
"::::::::::::::::::::: &$$ O ::::: &$$$XO$$$X:::::::: ## ::::::::",
":::::::::::::::::::::   $O ::::::: &$$$$$$X:::::::::: # ::::::::",
"::::::::::::::::::::: ## O ::::::: &&$$$$X::::::::::: # ::::::::",
"::::::::::::::::::::: ###  ::::::::  &&&X:::::::::::::  ::::::::",
"::::::::::::::::::::: #### :::::::::: XX::::::::::::::::::::::::",
"::::::::::::::::::::: ### ::::::::::::::::::::::::::::::::::::::",
"::::::::::::::::::::: ### ::::::::::::::::::::::::::::::::::::::",
"::::::::::::::::::::: ## :::::::::::::::::::::::::::::::::::::::",
"::::::::::::::::::::: ## :::::::::::::::::::::::::::::::::::::::",
"::::::::::::::::::::: ## :::::::::::::::::::::::::::::::::::::::",
":::::::::::::::::::: ## ::::::::::::::::::::::::::::::::::::::::",
":::::::::::::::::::: ## ::::::::::::::::::::::::::::::::::::::::",
"::::::::::::::::::: ### ::::::::::::::::::::::::::::::::::::::::",
":::::::::::::::::  #### ::::::::::::::::::::::::::::::::::::::::",
":::::::::::::::  ###### ::::::::::::::::::::::::::::::::::::::::",
":::::::::::::: ######## ::::::::::::::::::::::::::::::::::::::::"
};
