/* XPM */
static char *result[] = {
/* columns rows colors chars-per-pixel */
"64 64 22 1 ",
"  c black",
". c #010000",
"X c #010102",
"o c #060404",
"O c #110D0F",
"+ c #0D0A17",
"@ c #0F1112",
"# c #0F1612",
"$ c #251914",
"% c #2F1418",
"& c #201C31",
"* c #312723",
"= c #2D363F",
"- c #421020",
"; c #503B29",
": c #672D35",
"> c #52632E",
", c #5E6834",
"< c #FF6A00",
"1 c orange",
"2 c #6A768F",
"3 c None",
/* pixels */
"3333333333333333333333333333333333333333333333333333333333333333",
"3333333333333333333333333333333333333333333333333333333333333333",
"3333333333333333333333333333333.......33333333333333333333333333",
"333333333333333333333333333333.*>>>>>*.3333333333333333333333333",
"333333333333333333333333333333.******>.3333333333333333333333333",
"33333333333333333333333333333.********>.333333333333333333333333",
"33333333333333333333333333333.********>.333333333333333333333333",
"3333333333333333333333333333.**...$***>.333333333333333333333333",
"33333333333333333333333333333..<11 $***.333333333333333333333333",
"333333333333333333333333333333. <<<.$*$. 33333333333333333333333",
"333333333333333333333333333333.+    .$$.; 3333333333333333333333",
"33333333333333333333          .+++++...;* 3333333333333333333333",
"3333333333333333333 ===========.++++. ;**; 333333333333333333333",
"333333333333333333 =          = ++..;;*** ; 33333333333333333333",
"33333333333333333 = 333333333 = ..* &**  ;** 3333333333333333333",
"33333333333333333 = 333333333 = ***    * ;** 3333333333333333333",
"333333333333333                    &&&  ;***@ 333333333333333333",
"333333333333333 &&&&& &&&&&&&&&&&&&&&&  ;***@ 333333333333333333",
"333333333       &&  &          &&22&&&  ;**@@ 333333333333333333",
"333333333       O :: OOOOOOOOOOOOOOOO&  ;**@ 3333333333333333333",
"3333333333333333  -::               OO ;***@ 3333333333333333333",
"33333333333333333 ----  ::::-   =& & O ;**@@ 3333333333333333333",
"333333333333333333    3  --- ;;;     O ;**@@  333333333333333333",
"3333333333333333333333333 -- ***;;;;   ;**@ & 333333333333333333",
"3333333333333333333333333     @@****;;; **@   333333333333333333",
"33333333333333333333333333   #  @@***** *@  ## 33333333333333333",
"3333333333333333333333333333 # =  @@*****@ ### 33333333333333333",
"3333333333333333333333333333        @@@*@ # #  33333333333333333",
"3333333333333333333333333333 , ## ##   @@ #  , 33333333333333333",
"3333333333333333333333333333 ,    #####     ,, 33333333333333333",
"3333333333333333333333333333 , ,,       ,,, , 333333333333333333",
"33333333333333333333333333333  ,, ,,,,, ,,,  3333333333333333333",
"3333333333333333333333333333333   ,,,,,    - 3333333333333333333",
"3333333333333333333333333333333 --     ---- ; 333333333333333333",
"333333333333333333333333333333 ; -------   **; 33333333333333333",
"33333333333333333333333333333 ;**       *****; 33333333333333333",
"33333333333333333333333333333 ;**@.,.@********; 3333333333333333",
"3333333333333333333333333333 ;***@.,.@********; 3333333333333333",
"3333333333333333333333333333 ;***@.,.@*********@ 333333333333333",
"3333333333333333333333333333 ;**@.,.@@@*******@ 3333333333333333",
"333333333333333333333333333  ***@.,.@@@*****@@ ; 333333333333333",
"333333333333333333333333333 ; @*@.,.@@@@@@@@  *; 333333333333333",
"333333333333333333333333333X;* @@.,.@@@@@.  ***; 333333333333333",
"333333333333333333333333333X;** ..,.@@...@@@****; 33333333333333",
"33333333333333333333333333 ;**@@@@....333 @@@***;X33333333333333",
"33333333333333333333333333X;*@@@@X33333333 @@***;X33333333333333",
"33333333333333333333333333X;*@@@X3333333333 @@**;X33333333333333",
"3333333333333333333333333X;*@@@@X33333333333X@@*X;X3333333333333",
"3333333333333333333333333X;**XXX3333333333333XX@**; 333333333333",
"3333333333333333333333333X;**@@@X333333333333X@@**;X333333333333",
"33333333333333333333333333X***@@X3333333333333X@@**; 33333333333",
"333333333333333333333333333X***@X3333333333333X@@@*  33333333333",
"3333333333333333333333333333X*XX%X3333333333333 @  % 33333333333",
"33333333333333333333333333333Xo%%X33333333333333 %%%% 3333333333",
"333333333333333333333333333333Xo%%X33333333333333 %%% 3333333333",
"3333333333333333333333333333333X%%X33333333333333 o%% 3333333333",
"3333333333333333333333333333333Xo%X333333333333333 %% 3333333333",
"33333333333333333333333333333333X%%X33333333333333 o% 3333333333",
"33333333333333333333333333333333X%%X333333333333333 %% 333333333",
"33333333333333333333333333333333X%%X333333333333333 o% 333333333",
"3333333333333333333333333333333X%%%X333333333333333 o%% 33333333",
"33333333333333333333333333333XX%%%%oX333333333333333 %% 33333333",
"333333333333333333333333333XX%%%%%ooX333333333333333 o%% 3333333",
"33333333333333333333333333X%%%%oooooX333333333333333 o%% 3333333"
};
