/* XPM */
static char *result[] = {
/* columns rows colors chars-per-pixel */
"64 64 23 1 ",
"  c black",
". c #010000",
"X c #010102",
"o c #060404",
"O c #110D0F",
"+ c #0D0A17",
"@ c #0F1112",
"# c #0F1612",
"$ c #251914",
"% c #2F1418",
"& c #201C31",
"* c #312723",
"= c #2D363F",
"- c #421020",
"; c #503B29",
": c #672D35",
"> c #52632E",
", c #5E6834",
"< c #FF6A00",
"1 c orange",
"2 c #6A768F",
"3 c white",
"4 c None",
/* pixels */
"4444444444444444444444444444444444444444444444444444444444444444",
"4444444444444444444444444444444444444444444444444444444444444444",
"44444444444444444444444444444444444.......4444444444444444444444",
"4444444444444444444444444444444444.*>>>>>*.444444444444444444444",
"4444444444444444444444444444444444.******>.444444444444444444444",
"444444444444444444444444444444444.********>.44444444444444444444",
"444444444444444444444444444444444.********>.44444444444444444444",
"44444444444444444444444444444444.**...$***>.44444444444444444444",
"444444444444444444444444444444444..<11 $***.44444444444444444444",
"4444444444444444444444444444444444. <<<.$*$. 4444444444444444444",
"4444<4<444444444444444444444444444.+    .$$.; 444444444444444444",
"4444<<<444444444444444444         .+++++...;* 444444444444444444",
"44444<<<4444444444444444 ========= .++++. ;**; 44444444444444444",
"44444<<1<<4444444444444 =        = 4++..;;*** ; 4444444444444444",
"444444<11<<44444444444 = 4444444 =  ..* &**  ;** 444444444444444",
"4444444<11<444444444  = 44444444 =  **     * ;** 444444444444444",
"4<<<<<<<<1<<4444444  &                &&& * ;***@ 44444444444444",
"<<11111113314       &&  &&X&&&&&&&&&&&&&& * ;***@ 44444444444444",
"1133333333314       O :: O        &&22&&& * ;**@@ 44444444444444",
"<<<<<<11111<4444444   ::- OOOOOOOOOOOOOOO * ;**@ 444444444444444",
"44444<4<11<4444444444 :---             OO  ;***@ 444444444444444",
"444444411<<44444444444      :::--   & & O  ;**@@ 444444444444444",
"444444111<444444444444444444 :-- ;;;    O& ;**@@ 444444444444444",
"444444<1<4444444444444444444  -- ***;;;;   ;**@  444444444444444",
"444444<<44444444444444444444      @@****;;; **@  444444444444444",
"444444<444444444444444444444444 #   @@***** *@ ## 44444444444444",
"4444444444444444444444444444444 #     @@*****@ ## 44444444444444",
"4444444444444444444444444444444   ###   @@@*@  #  44444444444444",
"4444444444444444444444444444444 , ## ###   @@   , 44444444444444",
"4444444444444444444444444444444 ,    #####     ,, 44444444444444",
"4444444444444444444444444444444 , ,,       ,,, , 444444444444444",
"44444444444444444444444444444444  ,, ,,,,, ,,,  4444444444444444",
"4444444444444444444444444444444444   ,,,,,    - 4444444444444444",
"4444444444444444444444444444444444 --     ---- ; 444444444444444",
"444444444444444444444444444444444 ; -------   **; 44444444444444",
"44444444444444444444444444444444 ;**       *****; 44444444444444",
"44444444444444444444444444444444 ;**@.,.@********; 4444444444444",
"4444444444444444444444444444444 ;***@.,.@********; 4444444444444",
"4444444444444444444444444444444 ;***@.,.@*********@ 444444444444",
"4444444444444444444444444444444 ;**@.,.@@@*******@ 4444444444444",
"444444444444444444444444444444  ***@.,.@@@*****@@ ; 444444444444",
"444444444444444444444444444444 ; @*@.,.@@@@@@@@  *; 444444444444",
"444444444444444444444444444444X;* @@.,.@@@@@.  ***; 444444444444",
"444444444444444444444444444444X;** ..,.@@...@@@****; 44444444444",
"44444444444444444444444444444 ;**@@@@....444 @@@***;X44444444444",
"44444444444444444444444444444X;*@@@@X44444444 @@***;X44444444444",
"44444444444444444444444444444X;*@@@X4444444444 @@**;X44444444444",
"4444444444444444444444444444X;*@@@@X44444444444X@@*X;X4444444444",
"4444444444444444444444444444X;**XXX4444444444444XX@**; 444444444",
"4444444444444444444444444444X;**@@@X444444444444X@@**;X444444444",
"44444444444444444444444444444X***@@X4444444444444X@@**; 44444444",
"444444444444444444444444444444X***@X4444444444444X@@@*  44444444",
"4444444444444444444444444444444X*XX%X4444444444444 @  % 44444444",
"44444444444444444444444444444444Xo%%X44444444444444 %%%% 4444444",
"444444444444444444444444444444444Xo%%X44444444444444 %%% 4444444",
"4444444444444444444444444444444444X%%X44444444444444 o%% 4444444",
"4444444444444444444444444444444444Xo%X444444444444444 %% 4444444",
"44444444444444444444444444444444444X%%X44444444444444 o% 4444444",
"44444444444444444444444444444444444X%%X444444444444444 %% 444444",
"44444444444444444444444444444444444X%%X444444444444444 o% 444444",
"4444444444444444444444444444444444X%%%X444444444444444 o%% 44444",
"44444444444444444444444444444444XX%%%%oX444444444444444 %% 44444",
"444444444444444444444444444444XX%%%%%ooX444444444444444 o%% 4444",
"44444444444444444444444444444X%%%%oooooX444444444444444 o%% 4444"
};
