/* XPM */
static char *result[] = {
/* columns rows colors chars-per-pixel */
"64 64 14 1 ",
"  c #010000",
". c #060404",
"X c #0D0A17",
"o c #2F1418",
"O c #1F3836",
"+ c #70221B",
"@ c #57312B",
"# c #5E6834",
"$ c #444563",
"% c #94953E",
"& c #C08C78",
"* c #547290",
"= c #CEC7C2",
"- c None",
/* pixels */
"----------------------------------------------------------------",
"----------------------------------------------------------------",
"----------------------------------------------------------------",
"----------------------------------------------------------------",
"----------------------------------------------------------------",
"---------------------------------      -------------------------",
"-------------------------------- &&&&&& ------------------------",
"------------------------------- &&&&&&&& -----------------------",
"------------------------------- &&&&==&& -----------------------",
"------------------------------- &&&&oo&& -----------------------",
"------------------------------- &&&&&&&& -----------------------",
"------------------------------- &&&&&&&oo-----------------------",
"-------------------------------- &&&&&o+-----          ---------",
"--------------------------------  &&&o++     &&&&&&&&&   -------",
"-------------------------------- &.&&&ooo&&&&&             -----",
"------------------------------- &&@.&&&& &&   ---------    -----",
"------------------------------ &&&@@    &  --------   --   -----",
"-----------------------------     & &@@@ ----------    --- -----",
"---------------------------- % #%% &@@  ---------- &   ---------",
"--------------------------- %# ###%   ----------- && - ---------",
"-------------------------- %#######%%%    ------ && ------------",
"-------------------------- %### O#####% &&      &&& ------------",
"------------------------- %###%% O####% &&&&&&&&&  -------------",
"------------------------ %###%O#% OO##%          ---------------",
"------------------------ %##%O###%  OOO ------------------------",
"----------------------- %###%O###% -    ------------------------",
"---------------------- %###%O####% -----------------------------",
"---------------------- %####%OO##% -----------------------------",
"---------------------- %#####%%O##% ----------------------------",
"--------------------- %########%O#% ----------------------------",
"--------------------- %#######%%OO%% ---------------------------",
"-------------------- %#####%%%  %%%% ---------------------------",
"-------------------- %###%%    -  %% ---------------------------",
"-------------------- %##%  &&& --- % ---------------------------",
"-------------------- %#% @&&& ---    ---------------------------",
"------------------- %%% @@@&&    OO ----------------------------",
"------------------- %% @@@@@ OOOOOO ----------------------------",
"------------------- % @@@@@@ OOOOO -----------------------------",
"-------------------          OOO  ------------------------------",
"-------------------  XXXXXXX     -------------------------------",
"--------------------          ----------------------------------",
"-------------------- X$$$$$$  ----------------------------------",
"------------------- $ X$$$$$* ----------------------------------",
"------------------ $XX X$$$$$* ---------------------------------",
"------------------ $XXX X$$$$* ---------------------------------",
"----------------- $XXXXX XX$$$* --------------------------------",
"----------------- $XXXX -  X$$$* -------------------------------",
"---------------- $XXXX ---- X$$* -------------------------------",
"---------------- $XXX ------ X$$* ------------------------------",
"--------------- $XXX -------- X$* ------------------------------",
"--------------- $XX -------- X$$* ------------------------------",
"-------------- $XX -------- X$$* -------------------------------",
"------------- $XX --------- X$* --------------------------------",
"------------ $XX --------- &&& ---------------------------------",
"------------ $X ---------- && ----------------------------------",
"----------- $X ---------- && -----------------------------------",
"---------- && ---------- && ------------------------------------",
"---------- & ----------  & -------------------------------------",
"--------- & ---------- ++ --------------------------------------",
"--------- & ----------- + --------------------------------------",
"-------- + -------------+ --------------------------------------",
"-------- ++ ------------ + -------------------------------------",
"--------- ++ ------------  -------------------------------------",
"---------- ++ --------------------------------------------------"
};
