/* XPM */
static char *result[] = {
/* columns rows colors chars-per-pixel */
"64 64 13 1 ",
"  c #010000",
". c #0D0A17",
"X c #2F1418",
"o c #1F3836",
"O c #70221B",
"+ c #57312B",
"@ c #5E6834",
"# c #444563",
"$ c #94953E",
"% c #C08C78",
"& c #547290",
"* c #CEC7C2",
"= c None",
/* pixels */
"================================= ===   ========================",
"=================================  ==    =======================",
"=================================   ===   ======================",
"=================================    =     =====================",
"==================================     =   =====================",
"=============================      = % == % ====================",
"============================ %%%%%% = % = %% ===================",
"=========================== %%%%%%%% = % = % ===================",
"=========================== %%%%**%% == %  %% ==================",
"=========================== %%%%XX%% == %%  % ==================",
"=========================== %%%%%%%% === %% %% =================",
"=========================== %%%%%%%XX=== %% %% =================",
"============================ %%%%%XO===== %% % =================",
"============================= %%%XOO==== %%% %% ================",
"============================= +%%%XXX=  %%% %%% ================",
"============================= %+%%%%  %%%% %%% =================",
"============================= %     $ %%% %%% ==================",
"============================   $$$$$@ %  %%  ===================",
"=========================== $ $@@@@@@@     =====================",
"========================== $@ $@@@@@ooo ========================",
"========================= $@@@@@@@@o    ========================",
"========================= $@@$@@ooo ============================",
"======================== $@@$ooo   =============================",
"======================== $@$o@@@@ ==============================",
"======================== $@$o@@@@ ==============================",
"======================= $@@$o@@@ ===============================",
"======================= $@$oo@@@ ===============================",
"======================= $@@$$o@@ ===============================",
"====================== $@@@@@$o@ ===============================",
"====================== $@@@@@$$$@ ==============================",
"====================== $@@@$$   $$ =============================",
"====================== $@@$  +%%  $ ============================",
"===================== $@@$ ++++% o $ ===========================",
"===================== $@$ ++++++ oo  ===========================",
"===================== $$  ++      oo  ==========================",
"===================== $ o + ..... ooo ==========================",
"=====================  oo  .     . oo ==========================",
"=====================  oo . ###.    o ==========================",
"====================== oo  ####. ... ===========================",
"======================= o &####. ...# ==========================",
"========================  &####. ...# ==========================",
"========================= &###. .....# =========================",
"========================= &###. .....# =========================",
"========================= &###.  .....# ========================",
"========================= &###. = ....# ========================",
"========================== &##. == ....# =======================",
"========================== &##. === ...# =======================",
"========================== &##. ==== ...# ======================",
"========================== &#. ====== ..# ======================",
"========================== &#. ======  .# ======================",
"========================== &#. ===== ...# ======================",
"========================  &##. ==== ...# =======================",
"======================= &&##. ==== ...# ========================",
"====================== ###... ==== ..# =========================",
"===================== %#..   ===== %% ==========================",
"==================== %%%  ======== % ===========================",
"=================== %%  ========= %% ===========================",
"================== %% =========== % ============================",
"=================    ============ % ============================",
"================= O =============  =============================",
"================= O ============= O ============================",
"================= O ============= OO ===========================",
"================= OO ============  OO ==========================",
"================== O ==============   =========================="
};
