/* XPM */
static char *result[] = {
/* columns rows colors chars-per-pixel */
"64 64 16 1 ",
"  c black",
". c #010000",
"X c #010102",
"o c #0D0A17",
"O c #0F1112",
"+ c #0F1612",
"@ c #251914",
"# c #2F1418",
"$ c #312723",
"% c #421020",
"& c #503B29",
"* c #52632E",
"= c #5E6834",
"- c #FF6A00",
"; c orange",
": c None",
/* pixels */
"::::::::::::::::::::::::::::::::::::::::::::::::::::::::::::::::",
"::::::::::::::::::::::::::::::::::::::::::::::::::::::::::::::::",
"::::::::::::::::::::::::::::::::::::::::::::::::::::::::::::::::",
"::::::::::::::::::::::::::::::::::::::::::::::::::::::::::::::::",
"::::::::::::::::::::::::::::::::::::::::::.......:::::::::::::::",
":::::::::::::::::::::::::::::::::::::::::.$*****$.::::::::::::::",
":::::::::::::::::::::::::::::::::::::::::.*$$$$$$.::::::::::::::",
"::::::::::::::::::::::::::::::::::::::::.*$$$$$$$$.:::::::::::::",
"::::::::::::::::::::::::::::::::::::::::.*$$$$$$$$.:::::::::::::",
"::::::::::::::::::::::::::::::::::::::::.*$$$@...$$.::::::::::::",
"::::::::::::::::::::::::::::::::::::::::.$$$@ ;;-..:::::::::::::",
"::::::::::::::::::::::::::::::::::::::  .@$@.--- .::::::::::::::",
"::::::::::::::::::::::::::::::::::::: &&& @.    o.::::::::::::::",
":::::::::::::::::::::::::::::::::::  &&&&& .ooooo.::::::::::::::",
":::::::::::::::::::::::::::::::::: &&&&  && oooo.:::::::::::::::",
":::::::::::::::::::::::::::::::::: &&  oo  &..oo.:::::::::::::::",
":::::::::::::::::::::::::::::::::::  $&  oo &&..::::::::::::::::",
"::::::::::::::::::::::::::::::::::  $$$&& oo & :::::::::::::::::",
":::::::::::::::::::::::::::::::::  $$$$$$& oo ::::::::::::::::::",
":::::::::::::::::::::::::::::::::  $O$$$$& oo ::::::::::::::::::",
"::::::::::::::::::::::::::::::::  $$O$$$$& oo ::::::::::::::::::",
"::::::::::::::::::::::::::::::::  $O O$$$& o :::::::::::::::::::",
"::::::::::::::::::::::::::::::: o $O O$$$& o :::::::::::::::::::",
"::::::::::::::::::::::::::::::: oo O OO$$$&  :::::::::::::::::::",
":::::::::::::::::::::::::::::: oooo   O$$$& ::::::::::::::::::::",
":::::::::::::::::::::::::::::: o    o OO$$& ::::::::::::::::::::",
"::::::::::::::::::::::::::::::  ++++ + O$$$& :::::::::::::::::::",
"::::::::::::::::::::::::::::: o  +++ + OO$$& :::::::::::::::::::",
"::::::::::::::::::::::::::::: o =  +    O$$$& ::::::::::::::::::",
"::::::::::::::::::::::::::::: o === === OO$$& ::::::::::::::::::",
":::::::::::::::::::::::::::: % o    ===  O$$& ::::::::::::::::::",
"::::::::::::::::::::::::::::  %  ooo   = OO&& ::::::::::::::::::",
"::::::::::::::::::::::::::: &$ %%   ooo      :::::::::::::::::::",
"::::::::::::::::::::::::::: &$$   %%    ::::::::::::::::::::::::",
"::::::::::::::::::::::::::: &$$$$$     & :::::::::::::::::::::::",
":::::::::::::::::::::::::: &$$$$$$$$$$$$& ::::::::::::::::::::::",
":::::::::::::::::::::::::: &$$$$OO$$$$$$$& :::::::::::::::::::::",
":::::::::::::::::::::::::: &$$$$$OOO$$$$$$& ::::::::::::::::::::",
":::::::::::::::::::::::::: &$$$$$OOOO$$$$&  ::::::::::::::::::::",
":::::::::::::::::::::::::: &&&$$$OOOOOO$$ $& :::::::::::::::::::",
":::::::::::::::::::::::::::   $$$$OOOOOO O$$& ::::::::::::::::::",
"::::::::::::::::::::::::::: OO          OOO$& ::::::::::::::::::",
"::::::::::::::::::::::::::: OOOO$$ :  OOO$$$& ::::::::::::::::::",
"::::::::::::::::::::::::::: OO$$$$ ::: O$$$& :::::::::::::::::::",
"::::::::::::::::::::::::::: OO$$$ ::: # $$& ::::::::::::::::::::",
":::::::::::::::::::::::::: OO$$$$ :: ### & :::::::::::::::::::::",
":::::::::::::::::::::::::: OO$$$ ::: #### ::::::::::::::::::::::",
":::::::::::::::::::::::::: OO$$$ ::: ### :::::::::::::::::::::::",
":::::::::::::::::::::::::XXX$$&X:::: ## ::::::::::::::::::::::::",
"::::::::::::::::::::::::XOOO$$&X:::: ## ::::::::::::::::::::::::",
"::::::::::::::::::::::::XOO$$$X:::: ## :::::::::::::::::::::::::",
"::::::::::::::::::::::::XO$$$X::::: ## :::::::::::::::::::::::::",
":::::::::::::::::::::::X#XX$X:::::: ## :::::::::::::::::::::::::",
":::::::::::::::::::::::X###X::::::: ## :::::::::::::::::::::::::",
"::::::::::::::::::::::X###X:::::::: ### ::::::::::::::::::::::::",
"::::::::::::::::::::::X##X:::::::: #####  ::::::::::::::::::::::",
"::::::::::::::::::::::X##X:::::::: #######  ::::::::::::::::::::",
":::::::::::::::::::::X##X::::::::: ######### :::::::::::::::::::",
":::::::::::::::::::::X##X::::::::::          :::::::::::::::::::",
":::::::::::::::::::::X##X:::::::::::::::::::::::::::::::::::::::",
":::::::::::::::::::::X###X::::::::::::::::::::::::::::::::::::::",
"::::::::::::::::::::X#####XX::::::::::::::::::::::::::::::::::::",
"::::::::::::::::::::X#######XX::::::::::::::::::::::::::::::::::",
"::::::::::::::::::::X#########X:::::::::::::::::::::::::::::::::"
};
