/* XPM */
static char *result[] = {
/* columns rows colors chars-per-pixel */
"64 64 16 1 ",
"  c black",
". c #010000",
"X c #010102",
"o c #0D0A17",
"O c #0F1112",
"+ c #0F1612",
"@ c #251914",
"# c #2F1418",
"$ c #312723",
"% c #421020",
"& c #503B29",
"* c #52632E",
"= c #5E6834",
"- c #FF6A00",
"; c orange",
": c None",
/* pixels */
"::::::::::::::::::::::::::::::::::::::::::::::::::::::::::::::::",
"::::::::::::::::::::::::::::::::::::::::::::::::::::::::::::::::",
"::::::::::::::::::::::::::::::::::::::::::::::::::::::::::::::::",
"::::::::::::::::::::::::::::::::::::::::::::::::::::::::::::::::",
"::::::::::::::::::::::::::::::::::::::::::::::::::::::::::::::::",
":::::::::::::::::::::::::::::::::::::.......::::::::::::::::::::",
"::::::::::::::::::::::::::::::::::::.$*****$.:::::::::::::::::::",
"::::::::::::::::::::::::::::::::::::.*$$$$$$.:::::::::::::::::::",
":::::::::::::::::::::::::::::::::::.*$$$$$$$$.::::::::::::::::::",
":::::::::::::::::::::::::::::::::::.*$$$$$$$$.::::::::::::::::::",
":::::::::::::::::::::::::::::::::::.*$$$@...$$.:::::::::::::::::",
":::::::::::::::::::::::::::::::::::.$$$@ ;;-..::::::::::::::::::",
":::::::::::::::::::::::::::::::::  .@$@.--- .:::::::::::::::::::",
":::::::::::::::::::::::::::::::: &&& @.    o.:::::::::::::::::::",
"::::::::::::::::::::::::::::::  &&&&& .ooooo.:::::::::::::::::::",
"::::::::::::::::::::::::::::: &&&&  && oooo.::::::::::::::::::::",
"::::::::::::::::::::::::::::: &&   o  &..oo.::::::::::::::::::::",
"::::::::::::::::::::::::::::::  $&&  o &&..:::::::::::::::::::::",
":::::::::::::::::::::::::::::  $$$&&& o & ::::::::::::::::::::::",
"::::::::::::::::::::::::::::  $$$O$$$& o :::::::::::::::::::::::",
"::::::::::::::::::::::::::::  $OOO$$$& o :::::::::::::::::::::::",
":::::::::::::::::::::::::::  $OO O$$$& o :::::::::::::::::::::::",
":::::::::::::::::::::::::::  OOO O$$$$& ::::::::::::::::::::::::",
":::::::::::::::::::::::::: o OOO OO$$$& ::::::::::::::::::::::::",
":::::::::::::::::::::::::: oo OOO O$$$& ::::::::::::::::::::::::",
"::::::::::::::::::::::::: oooo    OO$$& ::::::::::::::::::::::::",
"::::::::::::::::::::::::: ooo    o O$$$& :::::::::::::::::::::::",
"::::::::::::::::::::::::: oo ++++  OO$$& :::::::::::::::::::::::",
":::::::::::::::::::::::: ooo  +++ + O$$$& ::::::::::::::::::::::",
":::::::::::::::::::::::: ooo =  +   OO$$& ::::::::::::::::::::::",
":::::::::::::::::::::::: ooo === ==  O$$& ::::::::::::::::::::::",
"::::::::::::::::::::::: % ooo    === OO&& ::::::::::::::::::::::",
":::::::::::::::::::::::  %  oooo  ===    :::::::::::::::::::::::",
":::::::::::::::::::::: &$ %%   ooo     :::::::::::::::::::::::::",
":::::::::::::::::::::: &$$   %%     ::::::::::::::::::::::::::::",
":::::::::::::::::::::: &$$$$$     $& :::::::::::::::::::::::::::",
"::::::::::::::::::::: &$$$$$OO$$$$$& :::::::::::::::::::::::::::",
"::::::::::::::::::::: &$$$$$OO$$$$$$& ::::::::::::::::::::::::::",
"::::::::::::::::::::: &$$$$$OOO$$$$$& ::::::::::::::::::::::::::",
"::::::::::::::::::::: &$$$$$$OOO$$$$&  :::::::::::::::::::::::::",
"::::::::::::::::::::: &$$$$$$OOOO$$$ & :::::::::::::::::::::::::",
"::::::::::::::::::::::   $$$$$OOOO$ $$& ::::::::::::::::::::::::",
":::::::::::XXX::::::::::           $$$& ::::::::::::::::::::::::",
":::::::::: ###XXXX:::::: OOOO OOO$$$$$$& :::::::::::::::::::::::",
":::::::::: #######XXX::: OOOOO  OOO$$$$& :::::::::::::::::::::::",
":::::::::: ##########XX:: OOO$$   OO$$$& :::::::::::::::::::::::",
":::::::::: ####XXX#####XXXOOO$$ :: OO $$& ::::::::::::::::::::::",
":::::::::: ###X:::XX##XOOOXO$$$ :::  O$$& ::::::::::::::::::::::",
"::::::::: ### ::::::X#X$OOXO$$$ :::: O$$& ::::::::::::::::::::::",
"::::::::: ## ::::::::X$$$OX$$$$ :::: OO   ::::::::::::::::::::::",
"::::::::: # ::::::::::X$$$$$$$$ ::::   ## ::::::::::::::::::::::",
"::::::::: # :::::::::::X$$$$$$ ::::: #### ::::::::::::::::::::::",
":::::::::  :::::::::::::X&&$   :::::: ### ::::::::::::::::::::::",
":::::::::::::::::::::::::XX ::::::::: ### ::::::::::::::::::::::",
":::::::::::::::::::::::::::::::::::::: ## ::::::::::::::::::::::",
":::::::::::::::::::::::::::::::::::::: ## ::::::::::::::::::::::",
":::::::::::::::::::::::::::::::::::::: ## ::::::::::::::::::::::",
":::::::::::::::::::::::::::::::::::::: ## ::::::::::::::::::::::",
"::::::::::::::::::::::::::::::::::::::: ## :::::::::::::::::::::",
"::::::::::::::::::::::::::::::::::::::: ## :::::::::::::::::::::",
"::::::::::::::::::::::::::::::::::::::: ### ::::::::::::::::::::",
"::::::::::::::::::::::::::::::::::::::: ####  ::::::::::::::::::",
"::::::::::::::::::::::::::::::::::::::: ######  ::::::::::::::::",
"::::::::::::::::::::::::::::::::::::::: ######## :::::::::::::::"
};
